<svg xmlns="http://www.w3.org/2000/svg" width="338.972" height="24.479" viewBox="0 0 338.972 24.479">
  <g id="date" transform="translate(-620.074 -468)">
    <g id="グループ_71" data-name="グループ 71" transform="translate(867.411 468.275)">
      <g id="_9.23" data-name=" 9.23" transform="translate(0)" style="isolation: isolate">
        <g id="グループ_55" data-name="グループ 55" transform="translate(0 0)" style="isolation: isolate">
          <path id="パス_53" data-name="パス 53" d="M966.363,377.667c6.97,0,10.978,4.288,10.978,9.322,0,6.563-5.576,11.523-13.185,13.648a37.232,37.232,0,0,1-8.074,1.231l-.174-.56c8.248-1.044,14.057-5.146,15.915-11l-3.775,1.342a9.434,9.434,0,0,1-3.427.6c-6.1,0-10.049-2.908-10.049-6.749,0-3.431,4.182-7.831,11.733-7.831Zm-.988.783a5.461,5.461,0,0,0-5.751,5.668c0,3.467,2.614,6.376,7.493,6.376a12.04,12.04,0,0,0,4.879-.969,21.461,21.461,0,0,0,.232-2.759c0-3.356-1.219-8.316-6.8-8.316Z" transform="translate(-954.571 -377.667)" fill="#fff"/>
          <path id="パス_54" data-name="パス 54" d="M1011.331,427.62c-1.51,0-2.614-.708-2.614-1.79,0-.969,1.1-1.79,2.672-1.79s2.729.82,2.729,1.79c0,1.082-1.161,1.79-2.729,1.79Z" transform="translate(-984.726 -403.493)" fill="#fff"/>
          <path id="パス_55" data-name="パス 55" d="M1054.645,396.685a40.2,40.2,0,0,0-1.917,4.661h-21.2V400.9c3.195-2.164,6.389-4.363,9.178-6.489,3.485-2.8,6.97-6.078,6.97-9.248s-2.44-5.183-6.97-5.183a9.934,9.934,0,0,0-7.667,3.319l-.755-.373,3.2-3.095a13.225,13.225,0,0,1,7.609-2.163c4.937,0,9.469,2.237,9.469,6.153,0,3.207-2.266,5.3-7.784,9.1l-8.306,5.78h11.617c3.136,0,4.008-.075,5.867-2.238Z" transform="translate(-997.43 -377.667)" fill="#fff"/>
          <path id="パス_56" data-name="パス 56" d="M1093.428,388.819a38.02,38.02,0,0,1,7.261-1.417c7.144,0,10.8,3.133,10.8,6.153,0,2.237-1.568,4.251-5,6.115a22.3,22.3,0,0,1-9.991,2.685,12.659,12.659,0,0,1-5.46-1.156c-.813-.448-1.045-.746-1.045-1.156s.581-1.007,1.219-1.305a1.263,1.263,0,0,1,1.278.187,13.071,13.071,0,0,0,6.97,1.939c5,0,7.261-2.536,7.261-5.705,0-3.431-3.021-5.929-8.945-5.929a23.737,23.737,0,0,0-5.982.783l2.207-11.336h16.322l.233.3-1.51,2.349h-14Z" transform="translate(-1029.995 -378.229)" fill="#fff"/>
        </g>
      </g>
      <g id="FRI" transform="translate(85.346 0.141)" style="isolation: isolate">
        <g id="グループ_58" data-name="グループ 58" transform="translate(0 0)" style="isolation: isolate">
          <path id="パス_61" data-name="パス 61" d="M1152.05,383.053a2.045,2.045,0,0,0,1.237-2.051c0-1.1-.493-1.65-1.079-1.65-.7,0-1.023.7-1.433,1.873-.409,1.159-.847,2.452-1.87,2.452-.912,0-1.713-1.248-1.713-3.166a7.264,7.264,0,0,1,.131-1.382c.074-.386.14-.624.186-.787a6.786,6.786,0,0,1,1.414-.357l.047.193a2.591,2.591,0,0,0-1.572,2.542c0,1.115.484,1.769,1.172,1.769s1.023-.788,1.423-1.858c.335-.907.809-2.393,1.842-2.393.884,0,1.646,1.114,1.646,2.958a8.49,8.49,0,0,1-.2,1.8c-.335.059-.707.149-1.191.253Z" transform="translate(-1147.193 -377.986)" fill="#fff"/>
          <path id="パス_62" data-name="パス 62" d="M1153.253,400.128c-.056-.891-.2-1.159-.623-1.218a8.425,8.425,0,0,0-1.47-.089h-.958a2.515,2.515,0,0,1-2.354-1.055,4.624,4.624,0,0,1-.633-2.571,5.434,5.434,0,0,1,.428-2.274,2.136,2.136,0,0,1,2.158-1.248h2.41c.931,0,.967-.134,1.042-1.174h.112v3.641h-.112c-.038-1.07-.121-1.2-1.042-1.2h-2.187c-1.256,0-2.419.595-2.419,2.749,0,2.363,1.4,2.75,2.754,2.75h.8a7.674,7.674,0,0,0,1.516-.1c.391-.074.512-.3.577-1.323h.112v3.121Z" transform="translate(-1147.205 -384.954)" fill="#fff"/>
          <path id="パス_63" data-name="パス 63" d="M1153.265,419.872c-.047-.818-.149-1.085-.633-1.144a12.968,12.968,0,0,0-1.544-.074h-3.852V418.4l5-6.45v-.03h-2.484a9.943,9.943,0,0,0-1.61.089c-.512.074-.633.342-.679,1.352h-.112v-3.151h.112c.047.862.158,1.174.679,1.248a12.153,12.153,0,0,0,1.61.089h2.121c.7,0,.81-.044,1.014-.312a1.786,1.786,0,0,0,.382-1.248h.112v2.066l-4.68,6.183v.045h2.391a12.406,12.406,0,0,0,1.526-.074c.474-.074.614-.357.651-1.4h.112v3.062Z" transform="translate(-1147.217 -395.809)" fill="#fff"/>
        </g>
      </g>
    </g>
    <g id="グループ_70" data-name="グループ 70" transform="translate(743.669 468)">
      <g id="_9.23-2" data-name=" 9.23" transform="translate(0 0)" style="isolation: isolate">
        <g id="グループ_50" data-name="グループ 50" transform="translate(0 0)" style="isolation: isolate">
          <path id="パス_42" data-name="パス 42" d="M966.363,281.048c6.97,0,10.978,4.289,10.978,9.322,0,6.563-5.576,11.523-13.185,13.648a37.231,37.231,0,0,1-8.074,1.231l-.174-.56c8.248-1.044,14.057-5.146,15.915-11l-3.775,1.342a9.435,9.435,0,0,1-3.427.6c-6.1,0-10.049-2.909-10.049-6.749,0-3.431,4.182-7.831,11.733-7.831Zm-.988.783a5.461,5.461,0,0,0-5.751,5.668c0,3.468,2.614,6.376,7.493,6.376a12.039,12.039,0,0,0,4.879-.969,21.455,21.455,0,0,0,.232-2.759c0-3.356-1.219-8.316-6.8-8.316Z" transform="translate(-954.571 -281.048)" fill="#fff"/>
          <path id="パス_43" data-name="パス 43" d="M1011.331,331c-1.51,0-2.614-.708-2.614-1.79,0-.969,1.1-1.79,2.672-1.79s2.729.82,2.729,1.79c0,1.082-1.161,1.79-2.729,1.79Z" transform="translate(-984.726 -306.874)" fill="#fff"/>
          <path id="パス_44" data-name="パス 44" d="M1054.645,300.066a40.23,40.23,0,0,0-1.917,4.661h-21.2v-.447c3.195-2.163,6.389-4.363,9.178-6.488,3.485-2.8,6.97-6.079,6.97-9.248s-2.44-5.183-6.97-5.183a9.935,9.935,0,0,0-7.667,3.319l-.755-.373,3.2-3.1a13.225,13.225,0,0,1,7.609-2.163c4.937,0,9.469,2.238,9.469,6.153,0,3.207-2.266,5.3-7.784,9.1l-8.306,5.78h11.617c3.136,0,4.008-.074,5.867-2.238Z" transform="translate(-997.43 -281.048)" fill="#fff"/>
          <path id="パス_45" data-name="パス 45" d="M1105.891,298.024v3.133c0,2.5.29,2.871,4.589,3.17v.447h-14.173v-.447c4.588-.3,4.879-.709,4.879-3.245v-3.058h-14.463v-.783c5.577-5.3,11.791-11.112,17.6-16.109h1.568v15.475h5.227v1.417Zm-4.7-12.715h-.116c-3.717,3.319-7.609,7.01-11.559,11.3h11.675Z" transform="translate(-1028.17 -281.095)" fill="#fff"/>
        </g>
      </g>
      <g id="FRI-2" data-name="FRI" transform="translate(85.658 0.193)" style="isolation: isolate">
        <g id="グループ_53" data-name="グループ 53" transform="translate(0)" style="isolation: isolate">
          <path id="パス_50" data-name="パス 50" d="M1153.267,287.088a2.263,2.263,0,0,0,1.369-2.268c0-1.216-.546-1.824-1.193-1.824-.772,0-1.132.772-1.585,2.071-.452,1.282-.936,2.712-2.068,2.712-1.008,0-1.893-1.381-1.893-3.5a8.022,8.022,0,0,1,.144-1.528c.082-.427.155-.69.206-.871a7.548,7.548,0,0,1,1.563-.394l.052.214a2.866,2.866,0,0,0-1.739,2.81c0,1.232.535,1.956,1.3,1.956s1.132-.871,1.574-2.055c.37-1,.9-2.646,2.037-2.646.978,0,1.821,1.232,1.821,3.27a9.409,9.409,0,0,1-.226,1.989c-.371.066-.782.164-1.317.28Z" transform="translate(-1147.897 -281.484)" fill="#fff"/>
          <path id="パス_51" data-name="パス 51" d="M1148.222,301.018h.123c.083.954.186,1.167.628.954.412-.214,1.05-.576,1.832-1.019v-3.3c-.6-.329-1.111-.608-1.585-.838-.679-.345-.792-.214-.875,1.035h-.123v-3.27h.123a1.729,1.729,0,0,0,1.091,1.759l5.526,3.434.072.3q-2.778,1.528-5.6,3.155c-.915.542-1.029.772-1.091,1.742h-.123Zm5.474-1.61v-.05c-.865-.542-1.78-1.052-2.6-1.545V300.8Z" transform="translate(-1148.078 -288.775)" fill="#fff"/>
          <path id="パス_52" data-name="パス 52" d="M1153.4,323.1a2.489,2.489,0,0,0,.916-.526c.268-.247.36-.608.36-1.939v-1.069h-5.3c-.823,0-.967.132-1.029,1.545h-.123V316.67h.123c.062,1.347.206,1.5,1.029,1.5h5.3v-.822c0-1.577-.1-1.939-.37-2.169a2.628,2.628,0,0,0-.916-.526v-.23c.576.082,1.245.164,1.759.2v.164a1.105,1.105,0,0,0-.257.9v6.458a1.126,1.126,0,0,0,.257.838v.181a11.755,11.755,0,0,0-1.728.164Z" transform="translate(-1148.078 -299.826)" fill="#fff"/>
        </g>
      </g>
    </g>
    <g id="グループ_69" data-name="グループ 69" transform="translate(620.074 468.168)">
      <g id="_9.23-3" data-name=" 9.23" transform="translate(0 0)" style="isolation: isolate">
        <g id="グループ_45" data-name="グループ 45" transform="translate(0 0)" style="isolation: isolate">
          <path id="パス_31" data-name="パス 31" d="M966.363,183.987c6.97,0,10.978,4.289,10.978,9.322,0,6.563-5.576,11.523-13.185,13.648a37.2,37.2,0,0,1-8.074,1.23l-.174-.559c8.248-1.044,14.057-5.146,15.915-11l-3.775,1.342a9.435,9.435,0,0,1-3.427.6c-6.1,0-10.049-2.909-10.049-6.749,0-3.431,4.182-7.831,11.733-7.831Zm-.988.783a5.461,5.461,0,0,0-5.751,5.668c0,3.468,2.614,6.376,7.493,6.376a12.04,12.04,0,0,0,4.879-.969,21.454,21.454,0,0,0,.232-2.759c0-3.356-1.219-8.316-6.8-8.316Z" transform="translate(-954.571 -183.987)" fill="#fff"/>
          <path id="パス_32" data-name="パス 32" d="M1011.331,233.94c-1.51,0-2.614-.708-2.614-1.79,0-.969,1.1-1.79,2.672-1.79s2.729.82,2.729,1.79c0,1.082-1.161,1.79-2.729,1.79Z" transform="translate(-984.726 -209.813)" fill="#fff"/>
          <path id="パス_33" data-name="パス 33" d="M1054.645,203a40.233,40.233,0,0,0-1.917,4.661h-21.2v-.447c3.195-2.163,6.389-4.363,9.178-6.488,3.485-2.8,6.97-6.078,6.97-9.248s-2.44-5.183-6.97-5.183a9.934,9.934,0,0,0-7.667,3.319l-.755-.373,3.2-3.1a13.225,13.225,0,0,1,7.609-2.163c4.937,0,9.469,2.238,9.469,6.153,0,3.207-2.266,5.3-7.784,9.1l-8.306,5.78h11.617c3.136,0,4.008-.074,5.867-2.238Z" transform="translate(-997.43 -183.987)" fill="#fff"/>
          <path id="パス_34" data-name="パス 34" d="M1105.851,193.571c4.937.634,7.9,3.02,7.9,5.705,0,6.153-11.036,8.838-14.87,8.838a12.559,12.559,0,0,1-5.4-1.156c-.755-.448-.988-.783-.988-1.193,0-.485.755-.969,1.219-1.23a1.287,1.287,0,0,1,1.22.037,13.216,13.216,0,0,0,6.971,2.014c4.124,0,6.97-1.827,6.97-5.855,0-3.766-4.008-5.22-7.377-5.22a14.771,14.771,0,0,0-3.195.373l-.232-.559c5.344-1.193,8.655-2.573,8.655-5.482,0-2.573-2.614-3.841-5.518-3.841a9.513,9.513,0,0,0-6.8,2.723l-.639-.336,2.382-2.424a12.5,12.5,0,0,1,7.028-1.976h.058c5.053,0,8.248,2.051,8.248,4.848a3.225,3.225,0,0,1-1.626,2.573,29.021,29.021,0,0,1-4.008,2.051Z" transform="translate(-1031.382 -183.987)" fill="#fff"/>
        </g>
      </g>
      <g id="FRI-3" data-name="FRI" transform="translate(85.303 0.605)" style="isolation: isolate">
        <g id="グループ_48" data-name="グループ 48" transform="translate(0 0)" style="isolation: isolate">
          <path id="パス_39" data-name="パス 39" d="M1152.944,192.773a2.036,2.036,0,0,0,.82-.461c.378-.337.488-.762.488-2.3v-1.1c0-.514-.044-.567-.355-.567h-2.84v1.86c0,1.612.155,1.736.821,1.913v.23h-1.985v-.23c.7-.177.876-.3.876-1.913v-1.86h-2.152c-1.043,0-1.121.141-1.187,1.594h-.133v-4.587h.133c.066,1.346.144,1.488,1.187,1.488h4.581c1.021,0,1.087-.142,1.154-1.382h.133v7.421a12.889,12.889,0,0,0-1.509.141Z" transform="translate(-1147.208 -185.352)" fill="#fff"/>
          <path id="パス_40" data-name="パス 40" d="M1147.1,213.679c0-.142,0-.319.011-.46a3.945,3.945,0,0,1,1.02-3.029c.543-.6,1.209-1.222,1.786-1.771a1.664,1.664,0,0,0,.51-1.452v-.408h-1.975c-.954,0-1.065.142-1.131,1.47h-.133v-4.446h.133c.066,1.346.177,1.488,1.131,1.488h4.693c.954,0,1.02-.142,1.109-1.417h.122v4.2a6.881,6.881,0,0,1-.4,2.834,1.565,1.565,0,0,1-1.409,1.081c-.954,0-1.531-1.01-1.875-2.3a20.813,20.813,0,0,0-1.642,1.594c-.577.62-.965,1.08-1.265,1.47a2.674,2.674,0,0,0-.566,1.187Zm3.528-6.429a4.065,4.065,0,0,0,.311,1.913,1.525,1.525,0,0,0,1.453.939c1.242,0,1.775-1.116,1.775-2.409a4.261,4.261,0,0,0-.078-.956c-.055-.124-.167-.177-.5-.177h-2.962Z" transform="translate(-1147.097 -195.505)" fill="#fff"/>
          <path id="パス_41" data-name="パス 41" d="M1147.3,227.092h.133c.066,1.364.166,1.506,1.131,1.506h4.659c.965,0,1.065-.142,1.132-1.506h.133v4.517h-.133c-.066-1.364-.167-1.506-1.132-1.506h-4.659c-.965,0-1.065.142-1.131,1.506h-.133Z" transform="translate(-1147.208 -208.598)" fill="#fff"/>
        </g>
      </g>
    </g>
  </g>
</svg>
