<?xml version="1.0" encoding="utf-8"?>
<!-- Generator: Adobe Illustrator 25.4.1, SVG Export Plug-In . SVG Version: 6.00 Build 0)  -->
<svg version="1.1" id="レイヤー_1" xmlns="http://www.w3.org/2000/svg" xmlns:xlink="http://www.w3.org/1999/xlink" x="0px"
	 y="0px" width="247.7px" height="34px" viewBox="0 0 247.7 34" style="enable-background:new 0 0 247.7 34;" xml:space="preserve">
<style type="text/css">
	.st0{fill:#FFFFFF;}
</style>
<g id="enter">
	<path id="パス_88" class="st0" d="M43,26.1c-0.8,2.5-1.8,4.9-2.9,7.3H0v-0.6c7.6-0.3,8.3-0.7,8.3-5.1V7.1c0-4.7-0.7-4.9-6.9-5.3
		V1.2h36.9c0,1.4,0.4,4.7,0.6,6.6L37.8,8c-0.5-1.7-1.6-3.1-3.1-4.1c-1.7-1.3-4-1.6-10.8-1.6h-5.4c-2.4,0-2.7,0.2-2.7,1.6v12.3H24
		c8,0,8.5-0.6,9.5-3.7h1.1v8.9h-1.1c-1.1-3.4-1.7-3.9-9.4-3.9h-8.4v10.1c0,2.4,0.4,3.5,1.9,4.1c1.6,0.7,4.5,0.7,8.7,0.7
		c7.6,0,9.5-0.5,11.4-1.9c1.7-1.3,3.1-2.8,4.2-4.6L43,26.1z"/>
	<path id="パス_89" class="st0" d="M102.2,1.8c-4.8,0.2-6.4,0.8-6.7,3.4c-0.3,2.7-0.5,5.5-0.4,8.2V34h-1.5l-38-26.7h-0.2v13.3
		c-0.1,2.9,0.1,5.7,0.5,8.6c0.4,2.7,2,3.4,8,3.6v0.6H45.3v-0.6c5.1-0.2,6.9-0.8,7.3-3.6c0.4-2.8,0.6-5.7,0.5-8.6V9.3
		c0-3.7-0.3-4.3-1.8-5.4c-1.9-1.3-3-1.8-7.3-2V1.2h12.2l36.4,25h0.3V13.4c0-2.7-0.1-5.4-0.4-8.1c-0.4-2.5-2.1-3.3-8.2-3.5V1.2h18
		V1.8z"/>
	<path id="パス_90" class="st0" d="M149.8,8.4c-0.6-1.7-1.5-3.2-2.8-4.4c-1.3-1.3-3.2-1.7-10.3-1.7H131v25.6c0,4,0.7,4.7,8.2,5
		v0.6h-23.6v-0.6c7.2-0.3,8-1,8-5V2.3h-4.4c-8.4,0-10.3,0.5-11.5,1.8c-1.2,1.3-2.2,2.8-2.8,4.4h-1.2c0.4-2.8,0.9-6,1.1-8.5h0.9
		c1.1,1.1,2.5,1.2,4.8,1.2h34.4c1.6,0.2,3.2-0.3,4.5-1.2h1c0.1,2.8,0.4,5.6,0.9,8.3L149.8,8.4z"/>
	<path id="パス_91" class="st0" d="M195.1,26.1c-0.8,2.5-1.8,4.9-2.9,7.3H152v-0.6c7.6-0.3,8.3-0.7,8.3-5.1V7.1
		c0-4.7-0.7-4.9-6.9-5.3V1.2h36.9c0,1.4,0.3,4.7,0.6,6.6L189.8,8c-0.5-1.7-1.6-3.1-3.1-4.1c-1.7-1.3-4-1.6-10.8-1.6h-5.4
		c-2.4,0-2.7,0.2-2.7,1.6v12.3h8.2c8,0,8.5-0.6,9.5-3.7h1.1v8.9h-1.1c-1.1-3.4-1.7-3.9-9.4-3.9h-8.4v10.1c0,2.4,0.4,3.5,1.9,4.1
		c1.6,0.7,4.5,0.7,8.7,0.7c7.6,0,9.5-0.5,11.4-1.9c1.7-1.3,3.1-2.8,4.2-4.6L195.1,26.1z"/>
	<path id="パス_92" class="st0" d="M247.5,33.8c-0.7,0-1.6,0-2.3,0c-8-0.2-11.4-1.5-15-4.6c-3-2.4-6-5.4-8.7-8
		c-1.7-1.5-3.1-2.3-7.2-2.3h-2v8.8c0,4.3,0.7,4.8,7.3,5.1v0.6h-22v-0.6c6.6-0.3,7.3-0.8,7.3-5.1v-21c0-4.3-0.7-4.6-7-5V1.2h20.7
		c6.6,0,10.7,0.5,14,1.8c3.1,1.2,5.3,3.4,5.3,6.3c0,4.3-5,6.9-11.4,8.4c2.5,2.6,5.1,5,7.9,7.3c3.1,2.6,5.3,4.3,7.3,5.7
		c1.7,1.3,3.7,2.2,5.9,2.5L247.5,33.8z M215.7,18c4.3,0,7.2-0.3,9.4-1.4c3.1-1.4,4.6-3.6,4.6-6.5c0-5.6-5.5-7.9-11.9-7.9
		c-1.6,0-3.2,0.1-4.7,0.3c-0.6,0.2-0.9,0.7-0.9,2.2V18L215.7,18z"/>
</g>
</svg>
