<svg xmlns="http://www.w3.org/2000/svg" width="164.392" height="22.578" viewBox="0 0 164.392 22.578">
  <g id="enter" style="isolation: isolate">
    <path id="パス_88" data-name="パス 88" d="M498.265,920.567a36.892,36.892,0,0,1-1.916,4.845H469.7v-.4c5.052-.231,5.517-.494,5.517-3.362V907.943c0-3.131-.465-3.262-4.587-3.493v-.4h24.5c0,.956.233,3.1.407,4.384l-.755.1a5.393,5.393,0,0,0-2.033-2.736c-1.1-.856-2.671-1.055-7.2-1.055h-3.6c-1.626,0-1.8.132-1.8,1.055v8.174h5.459c5.284,0,5.632-.4,6.329-2.472h.7v5.933h-.7c-.7-2.241-1.1-2.6-6.213-2.6h-5.575v6.724c0,1.615.29,2.307,1.278,2.7,1.046.461,2.962.461,5.749.461,5.052,0,6.329-.329,7.549-1.252a11.365,11.365,0,0,0,2.787-3.033Z" transform="translate(-469.695 -903.229)" fill="#fff"/>
    <path id="パス_89" data-name="パス 89" d="M574.2,904.449c-3.194.164-4.239.527-4.471,2.241a42.167,42.167,0,0,0-.29,5.471v13.646h-.987l-25.2-17.7h-.116v8.8a32.171,32.171,0,0,0,.348,5.7c.291,1.813,1.336,2.242,5.284,2.406v.4h-12.31v-.4c3.368-.164,4.587-.56,4.877-2.406a39.423,39.423,0,0,0,.348-5.7v-7.515c0-2.472-.174-2.868-1.219-3.593-1.278-.89-1.974-1.187-4.877-1.351v-.4h8.071l24.156,16.579h.174v-8.471a39.819,39.819,0,0,0-.291-5.406c-.29-1.681-1.393-2.175-5.458-2.307v-.4H574.2Z" transform="translate(-506.38 -903.229)" fill="#fff"/>
    <path id="パス_90" data-name="パス 90" d="M655.458,907.8a7.84,7.84,0,0,0-1.859-2.933c-.871-.857-2.148-1.154-6.852-1.154h-3.774v16.974c0,2.637.465,3.1,5.458,3.3v.4H632.753v-.4c4.762-.2,5.284-.659,5.284-3.3V903.71h-2.9c-5.575,0-6.852.329-7.665,1.187a8.241,8.241,0,0,0-1.858,2.933H624.8c.29-1.845.58-3.988.7-5.636h.581c.755.725,1.684.825,3.194.825h22.82a4.257,4.257,0,0,0,2.962-.825h.639a34.133,34.133,0,0,0,.581,5.538Z" transform="translate(-556.045 -902.194)" fill="#fff"/>
    <path id="パス_91" data-name="パス 91" d="M725.94,920.567a36.7,36.7,0,0,1-1.916,4.845H697.371v-.4c5.052-.231,5.516-.494,5.516-3.362V907.943c0-3.131-.464-3.262-4.587-3.493v-.4h24.5c0,.956.232,3.1.406,4.384l-.755.1a5.387,5.387,0,0,0-2.032-2.736c-1.1-.856-2.671-1.055-7.2-1.055h-3.6c-1.626,0-1.8.132-1.8,1.055v8.174h5.459c5.285,0,5.633-.4,6.33-2.472h.7v5.933h-.7c-.7-2.241-1.1-2.6-6.214-2.6h-5.574v6.724c0,1.615.29,2.307,1.278,2.7,1.045.461,2.962.461,5.749.461,5.052,0,6.329-.329,7.549-1.252a11.361,11.361,0,0,0,2.788-3.033Z" transform="translate(-596.448 -903.229)" fill="#fff"/>
    <path id="パス_92" data-name="パス 92" d="M798.721,925.676c-.465,0-1.046,0-1.51-.033-5.285-.165-7.549-.989-9.93-3.033-1.975-1.615-4.007-3.592-5.807-5.307-1.1-1.021-2.033-1.516-4.762-1.516h-1.336v5.867c0,2.834.465,3.164,4.82,3.362v.4H765.623v-.4c4.413-.2,4.878-.527,4.878-3.362V907.712c0-2.835-.465-3.032-4.646-3.3v-.362h13.762c4.413,0,7.084.3,9.291,1.186,2.09.824,3.542,2.242,3.542,4.186,0,2.834-3.31,4.548-7.549,5.57a65.623,65.623,0,0,0,5.226,4.878c2.033,1.714,3.543,2.868,4.82,3.758a9.234,9.234,0,0,0,3.891,1.681Zm-21.079-10.481c2.846,0,4.762-.2,6.272-.923,2.09-.956,3.078-2.373,3.078-4.318,0-3.692-3.659-5.273-7.9-5.273a15.327,15.327,0,0,0-3.136.23c-.406.164-.581.495-.581,1.483v8.8Z" transform="translate(-634.446 -903.229)" fill="#fff"/>
  </g>
</svg>
