<svg xmlns="http://www.w3.org/2000/svg" width="357.363" height="54.62" viewBox="0 0 357.363 54.62">
  <g id="heading_day1" transform="translate(-954.571 -183.987)">
    <g id="_9.23" data-name=" 9.23" style="isolation: isolate">
      <g id="グループ_45" data-name="グループ 45" style="isolation: isolate">
        <path id="パス_31" data-name="パス 31" d="M981.184,183.987c15.732,0,24.777,9.679,24.777,21.04,0,14.813-12.585,26.006-29.759,30.8a83.957,83.957,0,0,1-18.223,2.777l-.393-1.262c18.616-2.356,31.726-11.614,35.92-24.827l-8.52,3.029a21.293,21.293,0,0,1-7.735,1.347c-13.765,0-22.68-6.565-22.68-15.233,0-7.743,9.439-17.674,26.482-17.674Zm-2.229,1.767c-9.833,0-12.979,7.659-12.979,12.793,0,7.827,5.9,14.391,16.912,14.391,4.326,0,9.045-1.094,11.012-2.188a48.416,48.416,0,0,0,.524-6.228c0-7.574-2.752-18.768-15.338-18.768Z"/>
        <path id="パス_32" data-name="パス 32" d="M1014.616,238.439c-3.408,0-5.9-1.6-5.9-4.04,0-2.188,2.491-4.039,6.031-4.039s6.16,1.851,6.16,4.039c0,2.441-2.621,4.04-6.16,4.04Z"/>
        <path id="パス_33" data-name="パス 33" d="M1083.7,226.909c-1.573,2.778-2.885,6.817-4.326,10.52h-47.851v-1.01c7.21-4.881,14.42-9.847,20.714-14.644,7.865-6.312,15.731-13.718,15.731-20.872s-5.506-11.7-15.731-11.7c-9.308,0-14.159,4.292-17.3,7.49l-1.705-.841,7.211-6.986a29.849,29.849,0,0,1,17.173-4.881c11.143,0,21.37,5.05,21.37,13.886,0,7.238-5.114,11.952-17.567,20.536l-18.747,13.045h26.219c7.079,0,9.045-.168,13.241-5.05Z"/>
        <path id="パス_34" data-name="パス 34" d="M1122.643,205.617c11.143,1.43,17.829,6.817,17.829,12.876,0,13.887-24.909,19.946-33.561,19.946a28.344,28.344,0,0,1-12.191-2.609c-1.7-1.01-2.229-1.767-2.229-2.693,0-1.094,1.7-2.188,2.752-2.777a2.905,2.905,0,0,1,2.753.084,29.828,29.828,0,0,0,15.732,4.545c9.308,0,15.732-4.124,15.732-13.214,0-8.5-9.046-11.782-16.65-11.782a33.335,33.335,0,0,0-7.21.841l-.524-1.262c12.061-2.693,19.534-5.807,19.534-12.372,0-5.807-5.9-8.669-12.455-8.669a21.469,21.469,0,0,0-15.338,6.145l-1.442-.758,5.375-5.471c3.54-2.524,9.307-4.46,15.863-4.46h.131c11.405,0,18.615,4.629,18.615,10.941,0,2.356-1.441,4.208-3.671,5.807a65.489,65.489,0,0,1-9.045,4.629Z"/>
      </g>
    </g>
    <g id="DAY1" style="isolation: isolate">
      <g id="グループ_46" data-name="グループ 46" style="isolation: isolate">
        <path id="パス_35" data-name="パス 35" d="M1190.861,212.085c7.647,0,13.275,1.106,16.824,3.359,3.12,1.976,5.138,4.742,5.138,8.456,0,4.743-2.814,8.22-7.28,10.512-4.466,2.253-10.767,3.28-17.925,3.28h-13.825v-.474c4.955-.237,5.445-.593,5.445-4.031v-16.6c0-3.557-.49-3.794-4.957-4.031v-.474ZM1184.5,232.95c0,3.2,2.141,3.833,5.935,3.833,11.072,0,16.334-5.651,16.334-12.25,0-4.466-2.386-8.18-7.4-10.077a25.449,25.449,0,0,0-9.91-1.581,18.184,18.184,0,0,0-4.1.356c-.612.2-.857.632-.857,2.49Z"/>
        <path id="パス_36" data-name="パス 36" d="M1234.362,237.692v-.474c3.548-.316,4.343-.712,3.548-2.411-.8-1.58-2.141-4.03-3.793-7.034h-12.3c-1.224,2.292-2.264,4.268-3.12,6.086-1.286,2.608-.8,3.043,3.854,3.359v.474H1210.38v-.474c3.61-.277,4.466-.751,6.546-4.189l12.786-21.221,1.1-.277q5.688,10.671,11.746,21.5c2.018,3.517,2.874,3.952,6.484,4.189v.474Zm-6-21.023h-.183c-2.019,3.319-3.916,6.837-5.751,10h11.135Z"/>
        <path id="パス_37" data-name="パス 37" d="M1277.495,212.559c-4.037.316-4.4.79-6.3,2.687a101.4,101.4,0,0,0-8.136,9.326,3.518,3.518,0,0,0-1.041,2.688v5.769c0,3.6.49,3.952,5.629,4.189v.474h-16.273v-.474c4.955-.237,5.445-.593,5.445-4.189v-5.572c0-.79-.184-1.225-1.041-2.332-1.529-1.975-3.854-4.82-7.464-9.009-2.569-3.043-3-3.4-6.484-3.557v-.474h14.131v.474c-4.037.4-4.159.83-3.119,2.055,2.691,3.556,5.751,7.192,8.381,10.354,2.141-2.648,5.812-7.114,7.525-9.643,1.407-2.054.979-2.45-3.548-2.766v-.474h12.3Z"/>
      </g>
      <g id="グループ_47" data-name="グループ 47" style="isolation: isolate">
        <path id="パス_38" data-name="パス 38" d="M1286.875,238.181v-.733c8.227-.488,8.7-1.16,8.7-5.678V207.224c0-3.358-.378-3.663-5.295-3.907l-3.31-.123v-.61a123.549,123.549,0,0,0,16.36-3.175V231.77c0,4.579.473,5.19,8.6,5.678v.733Z"/>
      </g>
    </g>
    <g id="FRI" style="isolation: isolate">
      <g id="グループ_48" data-name="グループ 48" style="isolation: isolate">
        <path id="パス_39" data-name="パス 39" d="M1160.041,202.1a4.6,4.6,0,0,0,1.852-1.04c.852-.76,1.1-1.719,1.1-5.2v-2.478c0-1.16-.1-1.279-.8-1.279h-6.409v4.2c0,3.638.35,3.918,1.852,4.317v.52h-4.481v-.52c1.577-.4,1.978-.679,1.978-4.317v-4.2h-4.857c-2.355,0-2.53.319-2.679,3.6h-.3V185.352h.3c.149,3.038.324,3.358,2.679,3.358h10.34c2.3,0,2.454-.32,2.6-3.118h.3v16.75a29.1,29.1,0,0,0-3.405.319Z"/>
        <path id="パス_40" data-name="パス 40" d="M1147.1,226.369c0-.32,0-.719.025-1.039.125-3.638.75-5.2,2.3-6.836,1.226-1.36,2.729-2.758,4.031-4,.776-.759,1.152-1.4,1.152-3.277v-.92h-4.457c-2.154,0-2.4.32-2.553,3.318h-.3V203.583h.3c.149,3.038.4,3.358,2.553,3.358h10.591c2.153,0,2.3-.32,2.5-3.2h.275v9.474c0,3.038-.225,4.877-.9,6.4a3.532,3.532,0,0,1-3.18,2.439c-2.153,0-3.456-2.279-4.231-5.2a47,47,0,0,0-3.706,3.6c-1.3,1.4-2.178,2.438-2.854,3.318a6.035,6.035,0,0,0-1.277,2.678Zm7.962-14.511a9.175,9.175,0,0,0,.7,4.317,3.442,3.442,0,0,0,3.279,2.119c2.8,0,4.006-2.519,4.006-5.437a9.6,9.6,0,0,0-.175-2.158c-.125-.28-.376-.4-1.127-.4h-6.684Z"/>
        <path id="パス_41" data-name="パス 41" d="M1147.3,227.092h.3c.149,3.078.374,3.4,2.553,3.4h10.516c2.178,0,2.4-.32,2.554-3.4h.3v10.194h-.3c-.15-3.078-.376-3.4-2.554-3.4h-10.516c-2.179,0-2.4.32-2.553,3.4h-.3Z"/>
      </g>
    </g>
  </g>
</svg>
