<svg xmlns="http://www.w3.org/2000/svg" width="361.588" height="54.662" viewBox="0 0 361.588 54.662">
  <g id="heading_day3" transform="translate(-954.571 -377.667)">
    <g id="_9.23" data-name=" 9.23" style="isolation: isolate">
      <g id="グループ_55" data-name="グループ 55" style="isolation: isolate">
        <path id="パス_53" data-name="パス 53" d="M981.184,377.667c15.732,0,24.777,9.678,24.777,21.04,0,14.812-12.585,26.006-29.759,30.8a84.031,84.031,0,0,1-18.223,2.778l-.393-1.263c18.616-2.356,31.726-11.614,35.92-24.828l-8.52,3.03a21.292,21.292,0,0,1-7.735,1.346c-13.765,0-22.68-6.564-22.68-15.232,0-7.744,9.439-17.674,26.482-17.674Zm-2.229,1.767c-9.833,0-12.979,7.659-12.979,12.793,0,7.826,5.9,14.391,16.912,14.391,4.326,0,9.045-1.094,11.012-2.188a48.431,48.431,0,0,0,.524-6.228c0-7.575-2.752-18.768-15.338-18.768Z"/>
        <path id="パス_54" data-name="パス 54" d="M1014.616,432.119c-3.408,0-5.9-1.6-5.9-4.04,0-2.188,2.491-4.039,6.031-4.039s6.16,1.851,6.16,4.039c0,2.441-2.621,4.04-6.16,4.04Z"/>
        <path id="パス_55" data-name="パス 55" d="M1083.7,420.589c-1.573,2.777-2.885,6.817-4.326,10.52h-47.851V430.1c7.21-4.883,14.42-9.847,20.714-14.645,7.865-6.312,15.731-13.718,15.731-20.872s-5.506-11.7-15.731-11.7c-9.308,0-14.159,4.292-17.3,7.49l-1.705-.842,7.211-6.985a29.849,29.849,0,0,1,17.173-4.881c11.143,0,21.37,5.049,21.37,13.886,0,7.238-5.114,11.951-17.567,20.535l-18.747,13.046h26.219c7.079,0,9.045-.169,13.241-5.05Z"/>
        <path id="パス_56" data-name="パス 56" d="M1097.736,401.568c5.9-1.6,13.109-3.2,16.387-3.2,16.124,0,24.383,7.07,24.383,13.887,0,5.049-3.54,9.6-11.274,13.8a50.331,50.331,0,0,1-22.549,6.06c-5.768,0-10.75-1.684-12.323-2.609-1.835-1.01-2.359-1.683-2.359-2.609s1.311-2.272,2.752-2.946a2.851,2.851,0,0,1,2.885.422,29.5,29.5,0,0,0,15.731,4.376c11.274,0,16.387-5.724,16.387-12.877,0-7.743-6.817-13.382-20.189-13.382a53.57,53.57,0,0,0-13.5,1.768l4.981-25.585h36.838l.525.673-3.409,5.3h-31.595Z"/>
      </g>
    </g>
    <g id="DAY1" style="isolation: isolate">
      <g id="グループ_56" data-name="グループ 56" style="isolation: isolate">
        <path id="パス_57" data-name="パス 57" d="M1190.861,405.764c7.647,0,13.275,1.106,16.824,3.359,3.12,1.976,5.138,4.742,5.138,8.457,0,4.742-2.814,8.22-7.28,10.512-4.466,2.252-10.767,3.28-17.925,3.28h-13.825V430.9c4.955-.237,5.445-.592,5.445-4.03v-16.6c0-3.557-.49-3.794-4.957-4.031v-.474ZM1184.5,426.63c0,3.2,2.141,3.832,5.935,3.832,11.072,0,16.334-5.651,16.334-12.25,0-4.466-2.386-8.18-7.4-10.077a25.449,25.449,0,0,0-9.91-1.581,18.184,18.184,0,0,0-4.1.356c-.612.2-.857.632-.857,2.49Z"/>
        <path id="パス_58" data-name="パス 58" d="M1234.362,431.372V430.9c3.548-.316,4.343-.712,3.548-2.411-.8-1.58-2.141-4.03-3.793-7.033h-12.3c-1.224,2.291-2.264,4.267-3.12,6.085-1.286,2.608-.8,3.043,3.854,3.359v.475H1210.38V430.9c3.61-.276,4.466-.751,6.546-4.189l12.786-21.22,1.1-.278q5.688,10.671,11.746,21.5c2.018,3.518,2.874,3.952,6.484,4.189v.475Zm-6-21.024h-.183c-2.019,3.319-3.916,6.837-5.751,10h11.135Z"/>
        <path id="パス_59" data-name="パス 59" d="M1277.495,406.238c-4.037.316-4.4.791-6.3,2.687a101.539,101.539,0,0,0-8.136,9.326,3.518,3.518,0,0,0-1.041,2.688v5.769c0,3.6.49,3.952,5.629,4.189v.475h-16.273V430.9c4.955-.237,5.445-.592,5.445-4.189v-5.571c0-.791-.184-1.226-1.041-2.333-1.529-1.975-3.854-4.82-7.464-9.009-2.569-3.043-3-3.4-6.484-3.557v-.474h14.131v.474c-4.037.4-4.159.83-3.119,2.055,2.691,3.556,5.751,7.193,8.381,10.354,2.141-2.648,5.812-7.114,7.525-9.643,1.407-2.054.979-2.45-3.548-2.766v-.474h12.3Z"/>
      </g>
      <g id="グループ_57" data-name="グループ 57" style="isolation: isolate">
        <path id="パス_60" data-name="パス 60" d="M1303.3,408.516c8.038,1.038,12.86,4.946,12.86,9.342,0,10.075-17.967,14.471-24.209,14.471a20.344,20.344,0,0,1-8.794-1.893c-1.23-.733-1.608-1.282-1.608-1.954,0-.793,1.23-1.587,1.986-2.014a2.088,2.088,0,0,1,1.986.061,21.426,21.426,0,0,0,11.348,3.3c6.714,0,11.348-2.992,11.348-9.586,0-6.168-6.525-8.549-12.01-8.549a23.92,23.92,0,0,0-5.2.611l-.379-.916c8.7-1.954,14.09-4.214,14.09-8.976,0-4.213-4.255-6.289-8.983-6.289a15.447,15.447,0,0,0-11.064,4.458l-1.04-.55,3.877-3.969a20.264,20.264,0,0,1,11.443-3.236h.094c8.228,0,13.428,3.358,13.428,7.938,0,1.709-1.04,3.052-2.647,4.213a47.271,47.271,0,0,1-6.525,3.358Z"/>
      </g>
    </g>
    <g id="FRI" style="isolation: isolate">
      <g id="グループ_58" data-name="グループ 58" style="isolation: isolate">
        <path id="パス_61" data-name="パス 61" d="M1158.155,389.423a4.616,4.616,0,0,0,2.792-4.628c0-2.482-1.112-3.724-2.436-3.724-1.574,0-2.309,1.577-3.233,4.227-.924,2.616-1.911,5.534-4.22,5.534-2.058,0-3.865-2.817-3.865-7.145a16.4,16.4,0,0,1,.3-3.119c.168-.872.315-1.409.42-1.777a15.312,15.312,0,0,1,3.191-.8l.1.435a5.849,5.849,0,0,0-3.548,5.736c0,2.516,1.092,3.992,2.646,3.992,1.532,0,2.309-1.778,3.212-4.193.756-2.046,1.827-5.4,4.158-5.4,1.994,0,3.716,2.515,3.716,6.675a19.159,19.159,0,0,1-.462,4.058c-.756.134-1.595.336-2.687.57Z"/>
        <path id="パス_62" data-name="パス 62" d="M1160.843,412.233c-.126-2.012-.441-2.616-1.407-2.75a19.014,19.014,0,0,0-3.318-.2h-2.163c-2.352,0-4.074-.537-5.312-2.382a10.436,10.436,0,0,1-1.428-5.8,12.266,12.266,0,0,1,.966-5.132c.986-2.012,2.541-2.817,4.871-2.817h5.439c2.1,0,2.183-.3,2.352-2.65h.252v8.218h-.252c-.085-2.415-.274-2.717-2.352-2.717h-4.935c-2.834,0-5.459,1.342-5.459,6.205,0,5.334,3.15,6.206,6.216,6.206h1.805a17.322,17.322,0,0,0,3.422-.235c.882-.168,1.155-.671,1.3-2.985h.252v7.043Z"/>
        <path id="パス_63" data-name="パス 63" d="M1160.843,432.3c-.106-1.846-.337-2.449-1.429-2.583a29.288,29.288,0,0,0-3.485-.168h-8.693v-.57l11.275-14.557v-.068h-5.6a22.436,22.436,0,0,0-3.633.2c-1.155.168-1.428.771-1.533,3.052h-.252v-7.111h.252c.1,1.946.357,2.65,1.533,2.817a27.427,27.427,0,0,0,3.633.2h4.786c1.576,0,1.828-.1,2.289-.7a4.032,4.032,0,0,0,.862-2.817h.252v4.662l-10.562,13.954v.1h5.4a28.024,28.024,0,0,0,3.444-.168c1.07-.168,1.385-.8,1.47-3.153h.252v6.91Z"/>
      </g>
    </g>
  </g>
</svg>
