<svg xmlns="http://www.w3.org/2000/svg" width="402.096" height="19.198" viewBox="0 0 402.096 19.198">
  <path id="heading_photographers" d="M2.285-36.316v.335c3.506.168,3.861.335,3.861,2.822v11.793c0,2.4-.406,2.627-4.166,2.822v.335H14.885v-.335c-4.014-.2-4.42-.391-4.42-2.766v-4.834l3.607.531a11.623,11.623,0,0,0,1.982,0c4.776-.335,9.755-2.04,9.755-5.645,0-1.788-1.219-3.1-3.3-3.94-1.829-.782-4.725-1.118-8.282-1.118Zm8.18,2.263c0-.922.152-1.285.559-1.453a7.082,7.082,0,0,1,2.49-.279c4.217,0,7.418,1.369,7.418,4.555,0,3.94-4.217,4.834-7.164,4.834a17.964,17.964,0,0,1-3.3-.279Zm51.316-2.263h-12.5v.335c3.607.2,4.065.419,4.065,2.85v4.946H36.682v-4.946c0-2.459.406-2.655,3.912-2.85v-.335H28.3v.335c3.658.2,4.065.391,4.065,2.85v11.765c0,2.431-.406,2.627-4.014,2.822v.335H40.9v-.335c-3.811-.2-4.217-.391-4.217-2.822V-27.4H53.347v6.036c0,2.4-.406,2.627-4.319,2.822v.335H61.934v-.335c-3.861-.2-4.268-.419-4.268-2.822V-33.131c0-2.431.356-2.655,4.115-2.85Zm19.358-.391c-10.568,0-16.563,4.751-16.563,9.641,0,5.226,6.808,9.25,16,9.25,9.145,0,16.513-3.856,16.513-9.7,0-5.449-7.367-9.194-15.9-9.194Zm-.965.615c6.961,0,11.838,3.437,11.838,9.417,0,5.365-4.674,8.244-10.365,8.244-7.266,0-11.991-3.968-11.991-9.389,0-5.337,4.878-8.272,10.466-8.272Zm46.794,3.772a28.1,28.1,0,0,1-.508-4.695H125.9a3.81,3.81,0,0,1-2.591.7H103.342c-1.321,0-2.134-.084-2.794-.7h-.508c-.1,1.4-.356,3.214-.61,4.778h.711a6.97,6.97,0,0,1,1.626-2.487c.711-.727,1.829-1.006,6.707-1.006h2.54v14.391c0,2.236-.457,2.627-4.624,2.794v.335h13.718v-.335c-4.37-.168-4.776-.559-4.776-2.794V-35.73h3.3c4.115,0,5.233.251,6,.978a6.63,6.63,0,0,1,1.626,2.487Zm18.7-4.387c-10.568,0-16.563,4.751-16.563,9.641,0,5.226,6.808,9.25,16,9.25,9.145,0,16.513-3.856,16.513-9.7,0-5.449-7.367-9.194-15.9-9.194Zm-.965.615c6.961,0,11.838,3.437,11.838,9.417,0,5.365-4.674,8.244-10.365,8.244-7.266,0-11.991-3.968-11.991-9.389,0-5.337,4.878-8.272,10.467-8.272ZM198-26.4H185.7v.335c4.624.2,4.928.419,4.928,2.4v3.046c0,1.09-.508,1.509-1.473,1.76a16.525,16.525,0,0,1-4.217.447c-9.6,0-13.617-4.918-13.617-9.082,0-5.17,5.436-8.607,13.058-8.607,5.284,0,9.145,1.257,10.06,4.3l.762-.112c-.406-1.7-.61-3.13-.762-4.08a73.95,73.95,0,0,0-9.145-.727c-9.958,0-19.053,3.242-19.053,9.641,0,5.589,7.418,9.25,18.291,9.25a87.443,87.443,0,0,0,10.822-.978,6.155,6.155,0,0,1-.406-2.655v-2.487c0-1.649.254-1.9,3.048-2.124Zm31.755,8.1a8.216,8.216,0,0,1-3.4-1.425c-1.118-.754-2.439-1.733-4.217-3.186a56.675,56.675,0,0,1-4.573-4.136c3.709-.866,6.605-2.319,6.605-4.723,0-1.649-1.27-2.85-3.1-3.549-1.931-.755-4.268-1.006-8.129-1.006H200.894v.307c3.658.224,4.065.391,4.065,2.794v11.82c0,2.4-.406,2.683-4.268,2.85v.335h12.753v-.335c-3.811-.168-4.217-.447-4.217-2.85v-4.974H210.4c2.388,0,3.2.419,4.166,1.285,1.575,1.453,3.353,3.13,5.081,4.5,2.083,1.733,4.065,2.431,8.688,2.571.406.028.915.028,1.321.028Zm-20.527-8.579v-7.461c0-.838.152-1.118.508-1.257a13.83,13.83,0,0,1,2.744-.2c3.709,0,6.91,1.341,6.91,4.471,0,1.649-.864,2.85-2.693,3.661a13.112,13.112,0,0,1-5.487.782Zm52.942,8.663v-.335c-3-.168-3.709-.475-5.386-2.962q-5.03-7.671-9.755-15.2l-.915.2L235.495-21.506c-1.727,2.431-2.439,2.766-5.436,2.962v.335h10.111v-.335c-3.861-.224-4.268-.531-3.2-2.375.711-1.285,1.575-2.683,2.591-4.3h10.212c1.372,2.124,2.49,3.856,3.15,4.974.661,1.2,0,1.481-2.947,1.7v.335ZM249.315-26h-9.247c1.524-2.236,3.1-4.723,4.776-7.07H245Zm15.395-10.311v.335c3.506.168,3.861.335,3.861,2.822v11.793c0,2.4-.406,2.627-4.166,2.822v.335H277.31v-.335c-4.014-.2-4.42-.391-4.42-2.766v-4.834l3.607.531a11.623,11.623,0,0,0,1.982,0c4.776-.335,9.755-2.04,9.755-5.645,0-1.788-1.219-3.1-3.3-3.94-1.829-.782-4.725-1.118-8.282-1.118Zm8.18,2.263c0-.922.152-1.285.559-1.453a7.083,7.083,0,0,1,2.49-.279c4.217,0,7.418,1.369,7.418,4.555,0,3.94-4.217,4.834-7.164,4.834a17.964,17.964,0,0,1-3.3-.279Zm51.316-2.263h-12.5v.335c3.607.2,4.065.419,4.065,2.85v4.946H299.107v-4.946c0-2.459.406-2.655,3.912-2.85v-.335h-12.3v.335c3.658.2,4.065.391,4.065,2.85v11.765c0,2.431-.406,2.627-4.014,2.822v.335h12.55v-.335c-3.811-.2-4.217-.391-4.217-2.822V-27.4h16.665v6.036c0,2.4-.406,2.627-4.319,2.822v.335h12.905v-.335c-3.861-.2-4.268-.419-4.268-2.822V-33.131c0-2.431.356-2.655,4.115-2.85Zm27.386,13.888a9.754,9.754,0,0,1-2.439,2.571c-1.067.782-2.185,1.062-6.605,1.062-2.439,0-4.116,0-5.03-.391-.864-.335-1.118-.922-1.118-2.291v-5.7h4.878c4.471,0,4.827.307,5.436,2.208h.61V-30h-.61c-.61,1.76-.915,2.1-5.538,2.1H336.4v-6.93c0-.782.152-.894,1.575-.894h3.15c3.963,0,5.335.168,6.3.894a4.587,4.587,0,0,1,1.778,2.319l.66-.084a37.04,37.04,0,0,1-.356-3.717H328.067v.335c3.607.2,4.014.307,4.014,2.962v11.625c0,2.431-.406,2.655-4.827,2.85v.335h23.321a30.677,30.677,0,0,0,1.677-4.108ZM383.8-18.292a8.216,8.216,0,0,1-3.4-1.425c-1.118-.754-2.439-1.733-4.217-3.186a56.677,56.677,0,0,1-4.573-4.136c3.709-.866,6.605-2.319,6.605-4.723,0-1.649-1.27-2.85-3.1-3.549-1.931-.755-4.268-1.006-8.129-1.006H354.945v.307c3.658.224,4.065.391,4.065,2.794v11.82c0,2.4-.406,2.683-4.268,2.85v.335h12.753v-.335c-3.811-.168-4.217-.447-4.217-2.85v-4.974h1.169c2.388,0,3.2.419,4.166,1.285,1.575,1.453,3.353,3.13,5.081,4.5,2.083,1.733,4.065,2.431,8.688,2.571.406.028.915.028,1.321.028Zm-20.526-8.579v-7.461c0-.838.152-1.118.508-1.257a13.83,13.83,0,0,1,2.744-.2c3.709,0,6.91,1.341,6.91,4.471,0,1.649-.864,2.85-2.693,3.661a13.112,13.112,0,0,1-5.487.782ZM402.6-32.516c-.356-1.453-.66-2.571-.864-3.577a32.967,32.967,0,0,0-6.148-.615c-6.3,0-10.111,2.291-10.111,4.946,0,3.1,5.081,4.527,8.18,5.533,3.658,1.2,6.351,2.236,6.351,4.275,0,2.068-2.236,3.521-6.046,3.521-5.284,0-7.926-2.878-8.688-4.723l-.66.14a18.5,18.5,0,0,0,1.219,4.248c.559.14,1.372.335,2.693.559a28.2,28.2,0,0,0,4.725.391c6.554,0,10.822-2.4,10.822-5.142,0-3.074-4.42-4.387-8.383-5.617-4.014-1.23-6.4-2.208-6.4-4.3,0-1.76,1.88-3.242,5.64-3.242,4.166,0,6.1,1.9,7.012,3.717Z" transform="translate(-1.98 37.015)"/>
</svg>
