<svg xmlns="http://www.w3.org/2000/svg" width="363.102" height="54.621" viewBox="0 0 363.102 54.621">
  <g id="heading_day2" transform="translate(-954.571 -281.048)">
    <g id="_9.23" data-name=" 9.23" style="isolation: isolate">
      <g id="グループ_50" data-name="グループ 50" style="isolation: isolate">
        <path id="パス_42" data-name="パス 42" d="M981.184,281.048c15.732,0,24.777,9.679,24.777,21.04,0,14.813-12.585,26.006-29.759,30.8a84.029,84.029,0,0,1-18.223,2.778l-.393-1.263c18.616-2.356,31.726-11.614,35.92-24.827l-8.52,3.029a21.293,21.293,0,0,1-7.735,1.347c-13.765,0-22.68-6.565-22.68-15.233,0-7.743,9.439-17.674,26.482-17.674Zm-2.229,1.767c-9.833,0-12.979,7.659-12.979,12.793,0,7.827,5.9,14.391,16.912,14.391,4.326,0,9.045-1.094,11.012-2.188a48.416,48.416,0,0,0,.524-6.228c0-7.574-2.752-18.768-15.338-18.768Z"/>
        <path id="パス_43" data-name="パス 43" d="M1014.616,335.5c-3.408,0-5.9-1.6-5.9-4.04,0-2.188,2.491-4.039,6.031-4.039s6.16,1.851,6.16,4.039c0,2.441-2.621,4.04-6.16,4.04Z"/>
        <path id="パス_44" data-name="パス 44" d="M1083.7,323.97c-1.573,2.778-2.885,6.817-4.326,10.52h-47.851v-1.009c7.21-4.882,14.42-9.847,20.714-14.644,7.865-6.313,15.731-13.719,15.731-20.873s-5.506-11.7-15.731-11.7c-9.308,0-14.159,4.293-17.3,7.49l-1.705-.841,7.211-6.986a29.849,29.849,0,0,1,17.173-4.881c11.143,0,21.37,5.05,21.37,13.886,0,7.239-5.114,11.952-17.567,20.536l-18.747,13.045h26.219c7.079,0,9.045-.168,13.241-5.05Z"/>
        <path id="パス_45" data-name="パス 45" d="M1129.985,319.257v7.07c0,5.639.655,6.48,10.357,7.154v1.009h-31.988v-1.009c10.356-.674,11.012-1.6,11.012-7.323v-6.9h-32.643V317.49c12.586-11.951,26.612-25.08,39.723-36.358h3.539v34.927h11.8v3.2Zm-10.619-28.7h-.262c-8.39,7.49-17.174,15.822-26.089,25.5h26.351Z"/>
      </g>
    </g>
    <g id="DAY1" style="isolation: isolate">
      <g id="グループ_51" data-name="グループ 51" style="isolation: isolate">
        <path id="パス_46" data-name="パス 46" d="M1190.861,309.146c7.647,0,13.275,1.106,16.824,3.359,3.12,1.975,5.138,4.742,5.138,8.456,0,4.742-2.814,8.22-7.28,10.512-4.466,2.252-10.767,3.28-17.925,3.28h-13.825v-.474c4.955-.238,5.445-.593,5.445-4.031v-16.6c0-3.557-.49-3.794-4.957-4.031v-.474Zm-6.363,20.865c0,3.2,2.141,3.833,5.935,3.833,11.072,0,16.334-5.651,16.334-12.251,0-4.465-2.386-8.18-7.4-10.076a25.431,25.431,0,0,0-9.91-1.581,18.184,18.184,0,0,0-4.1.356c-.612.2-.857.632-.857,2.489Z"/>
        <path id="パス_47" data-name="パス 47" d="M1234.362,334.753v-.474c3.548-.317,4.343-.711,3.548-2.411-.8-1.581-2.141-4.031-3.793-7.034h-12.3c-1.224,2.292-2.264,4.268-3.12,6.085-1.286,2.609-.8,3.043,3.854,3.36v.474H1210.38v-.474c3.61-.277,4.466-.751,6.546-4.189l12.786-21.221,1.1-.276q5.688,10.668,11.746,21.5c2.018,3.517,2.874,3.951,6.484,4.189v.474Zm-6-21.023h-.183c-2.019,3.319-3.916,6.836-5.751,10h11.135Z"/>
        <path id="パス_48" data-name="パス 48" d="M1277.495,309.62c-4.037.316-4.4.79-6.3,2.687a101.273,101.273,0,0,0-8.136,9.326,3.515,3.515,0,0,0-1.041,2.687v5.77c0,3.6.49,3.951,5.629,4.189v.474h-16.273v-.474c4.955-.238,5.445-.593,5.445-4.189v-5.572c0-.79-.184-1.226-1.041-2.331-1.529-1.977-3.854-4.822-7.464-9.011-2.569-3.042-3-3.4-6.484-3.556v-.474h14.131v.474c-4.037.4-4.159.83-3.119,2.055,2.691,3.556,5.751,7.192,8.381,10.353,2.141-2.648,5.812-7.113,7.525-9.642,1.407-2.055.979-2.45-3.548-2.766v-.474h12.3Z"/>
      </g>
      <g id="グループ_52" data-name="グループ 52" style="isolation: isolate">
        <path id="パス_49" data-name="パス 49" d="M1317.673,327.345a66.1,66.1,0,0,0-3.122,7.633h-34.516v-.733c5.2-3.541,10.4-7.144,14.942-10.624,5.673-4.58,11.347-9.953,11.347-15.143s-3.972-8.487-11.347-8.487a16.139,16.139,0,0,0-12.484,5.434l-1.228-.61,5.2-5.068a21.446,21.446,0,0,1,12.389-3.541c8.038,0,15.414,3.663,15.414,10.074,0,5.251-3.688,8.671-12.672,14.9l-13.523,9.464h18.914c5.106,0,6.525-.122,9.55-3.663Z"/>
      </g>
    </g>
    <g id="FRI" style="isolation: isolate">
      <g id="グループ_53" data-name="グループ 53" style="isolation: isolate">
        <path id="パス_50" data-name="パス 50" d="M1160.018,294.132a5.108,5.108,0,0,0,3.089-5.119c0-2.744-1.231-4.117-2.693-4.117-1.742,0-2.554,1.743-3.577,4.674-1.021,2.893-2.113,6.12-4.667,6.12-2.276,0-4.273-3.116-4.273-7.9a18.108,18.108,0,0,1,.325-3.449c.186-.964.349-1.558.465-1.966a17.037,17.037,0,0,1,3.529-.89l.116.482a6.468,6.468,0,0,0-3.924,6.343c0,2.781,1.207,4.414,2.926,4.414,1.7,0,2.555-1.966,3.553-4.637.836-2.263,2.02-5.971,4.6-5.971,2.206,0,4.11,2.781,4.11,7.38a21.229,21.229,0,0,1-.511,4.488c-.837.149-1.764.371-2.972.631Z"/>
        <path id="パス_51" data-name="パス 51" d="M1148.222,309.115h.278c.187,2.152.419,2.634,1.417,2.152.929-.483,2.369-1.3,4.134-2.3v-7.455c-1.347-.742-2.508-1.373-3.577-1.892-1.532-.779-1.787-.482-1.974,2.337h-.278v-7.381h.278c.163,2.189.442,2.708,2.462,3.969l12.471,7.751.162.668q-6.27,3.449-12.633,7.121c-2.066,1.224-2.322,1.743-2.462,3.932h-.278Zm12.355-3.634v-.112c-1.952-1.224-4.018-2.374-5.876-3.486v6.75Z"/>
        <path id="パス_52" data-name="パス 52" d="M1159.9,334a5.614,5.614,0,0,0,2.066-1.187c.6-.557.813-1.372.813-4.376v-2.412h-11.959c-1.858,0-2.183.3-2.323,3.487h-.278V319.5h.278c.14,3.041.465,3.375,2.323,3.375h11.959V321.02c0-3.56-.232-4.376-.835-4.9a5.93,5.93,0,0,0-2.068-1.186v-.52c1.3.186,2.811.371,3.971.446v.37a2.5,2.5,0,0,0-.58,2.04V331.85a2.543,2.543,0,0,0,.58,1.892v.408a26.54,26.54,0,0,0-3.9.371Z"/>
      </g>
    </g>
  </g>
</svg>
