<svg xmlns="http://www.w3.org/2000/svg" width="147.79" height="28.482" viewBox="0 0 147.79 28.482">
  <path id="logo" d="M-.981,123.469c-.216,0-.424-.043-.624-.051-.216-.008-.42-.057-.62-.072-.216-.018-.435.066-.633.04-.215-.028-.421-.07-.617-.107-.215-.039-.419-.093-.609-.142-.214-.056-.4-.156-.587-.221-.212-.07-.431-.084-.609-.163a5.719,5.719,0,0,1-.555-.294,4.831,4.831,0,0,1-.521-.354,2.746,2.746,0,0,1-.41-.419c.1-.269.15-.234.312-.47s.116-.269.279-.506.2-.212.361-.449.194-.215.357-.452.1-.245.277-.506c.105-.154.18-.353.284-.506.18-.262.567-.239.4-.474-.21-.3-.264-.37-.627-.358-.29.007-.157.207-.339.436s-.193.221-.377.45-.166.242-.348.471-.2.212-.386.441-.229.192-.413.42-.157.251-.34.48-.195.219-.378.448-.182.231-.364.459-.2.214-.386.443-.132.272-.315.5-.2.217-.384.447-.287.177-.393.454.14.2.416.458c.12.114.272.243.452.384.141.109.309.214.489.335.152.1.337.177.518.284.162.094.293.268.479.359.168.086.349.17.539.252.174.075.378.1.57.172s.371.11.566.172.364.131.561.182.373.108.571.151.392.01.592.045.372.136.572.161.386.071.586.091.39.038.591.05.395-.07.6-.065.39.034.592.034.416-.011.621-.017.42.067.625.054.417-.032.62-.051.408-.115.612-.139.424.028.626,0,.393-.178.6-.214.409-.073.61-.115.421-.023.62-.069.415-.061.613-.111.4-.144.591-.2.411-.093.6-.151.4-.126.6-.191.384-.183.57-.25c.206-.076.386-.184.567-.255.207-.082.407-.14.58-.215.217-.094.42-.153.577-.224.359-.167.565.039.586-.27.021-.29-.123-.279-.2-.558s-.029-.29-.1-.569-.158-.259-.232-.539-.069-.281-.142-.562.066-.335-.109-.566c-.186-.247-.173.121-.536.28-.158.07-.374.094-.594.182-.173.07-.351.184-.561.261-.182.067-.386.109-.592.18-.185.063-.38.128-.585.194-.19.059-.395.086-.6.143s-.367.2-.572.254-.42,0-.625.047-.4.1-.6.138-.387.149-.593.186-.4.1-.606.133-.407.054-.614.079-.419-.05-.626-.03-.408.022-.617.037-.407.117-.614.124S-.773,123.469-.981,123.469Zm90.792-3.03c.013.05-.065.151-.02.125a2.412,2.412,0,0,0,.455-.386c.225-.2.232-.19.458-.386s.219-.2.444-.4.218-.205.442-.4.252-.168.477-.364.2-.221.429-.417.185-.244.41-.44l.45-.39c.226-.2.241-.179.468-.376s.228-.194.454-.389.269-.15.5-.347a5.928,5.928,0,0,0,.412-.44,1.2,1.2,0,0,0-.169-.556,3.343,3.343,0,0,0-.483.235c-.245.112-.248.1-.49.224a1.786,1.786,0,0,1-.6.145,1.7,1.7,0,0,1-.615.008c-.182-.045-.331-.218-.527-.32-.176-.094-.21-.03-.384-.12s-.347-.2-.54-.3c-.174-.093-.335-.227-.523-.33s-.347-.21-.531-.315-.351-.205-.532-.314-.384-.154-.562-.267-.345-.223-.518-.339-.307-.279-.476-.4-.386-.168-.552-.294-.289-.3-.451-.431-.3-.284-.456-.421-.378-.195-.53-.338-.232-.354-.379-.5-.293-.27-.432-.423c.157-.063.308-.177.516-.271.169-.076.362-.137.554-.234.17-.086.375-.13.557-.233s.351-.19.527-.3.335-.219.5-.336.3-.268.461-.395.318-.245.47-.381.268-.3.411-.444.328-.246.458-.4.212-.349.329-.515c.173-.229.144-.252.32-.48s.242-.178.419-.406c.138-.167.242-.334.342-.468a.844.844,0,0,0,.177-.523c0-.055.034-.109,0-.156-.081-.129-.351-.167-.666-.242-.238-.063-.227-.1-.461-.176a3.562,3.562,0,0,0-.575-.148,3.1,3.1,0,0,0-.587-.034,3.863,3.863,0,0,0-.592-.021,4.521,4.521,0,0,0-.565.183c-.2.052-.4.04-.576.1a4.439,4.439,0,0,1-.57.046c-.287,0-.287.039-.574.038s-.286-.108-.573-.108-.244.02-.574.019c-.175,0-.374.077-.574.077s-.4-.05-.576-.05c-.329,0-.455-.256-.569.009-.142.33-.246.4-.032.688.18.242.264.059.565.063s.3-.056.6-.052.3.035.6.039.3.051.6.054.3-.082.606-.078.3.049.6.053.3.028.6.048c-.006.03.039.04.034.075-.026.156-.152.332-.207.555a5.6,5.6,0,0,1-.176.552,4.924,4.924,0,0,1-.2.547,16.549,16.549,0,0,1-.59,1.007,5.272,5.272,0,0,1-.37.457,5.754,5.754,0,0,1-.447.388c-.145.117-.319.214-.489.324s-.347.243-.526.338c-.126-.176-.278-.378-.4-.557s-.2-.386-.308-.572-.136-.415-.232-.608-.257-.353-.34-.552-.16-.4-.23-.605-.174-.4-.234-.6-.086-.424-.135-.635-.032-.431-.065-.644c-.041-.284-.085-.279-.123-.563s0-.231-.045-.574c-.022-.166-.02-.363-.048-.573-.024-.181-.133-.362-.16-.559s-.038-.384-.064-.574-.081-.387-.106-.57c-.028-.21-.051-.405-.073-.573-.048-.342.09-.312.011-.587a1,1,0,0,0-.623-.077,1.3,1.3,0,0,0-.55.253,6,6,0,0,1,.077.639c.01.168.049.366.067.594.016.182,0,.382.022.6.018.188.054.384.082.594.027.19.052.388.085.593s.08.386.119.588.086.383.127.585.054.391.1.591.123.377.174.574,0,.41.056.606.129.377.19.57.147.371.212.562.1.387.173.576.185.355.261.541.155.367.237.551.121.386.207.566.152.372.247.551.234.326.334.5.2.346.3.517.221.333.333.5.184.36.3.521.262.3.388.461.292.275.426.425.277.285.417.429.284.318.421.47.257.343.389.5.322.288.448.45.182.4.3.56.284.322.4.49.255.345.362.519.231.363.333.54.165.4.257.578c.1.2.205.381.29.559.1.205.165.406.239.58.1.222.217.4.278.564C89.711,120.224,89.81,120.432,89.811,120.44Zm-2.425-14.8c0-.1.137.016.232.016,0,0,0-.029,0-.028C87.492,105.678,87.386,105.737,87.386,105.641ZM62.1,108.992a3.507,3.507,0,0,0,.5-.4,3.249,3.249,0,0,0,.489-.394,2.43,2.43,0,0,0,.4-.495,1.379,1.379,0,0,0,.1-.625.892.892,0,0,0-.093-.391,3.045,3.045,0,0,0-.163-.593c-.063-.163-.174-.34-.257-.555-.069-.176-.1-.384-.175-.585-.07-.182-.227-.341-.3-.537s-.143-.378-.217-.571-.12-.391-.193-.582-.142-.386-.214-.574-.135-.393-.205-.578-.215-.366-.284-.545c-.081-.21-.125-.412-.191-.583-.093-.242-.1-.409-.152-.54.153.023.3.043.522.094.17.041.353.1.549.161.176.05.382.04.571.1s.371.1.554.162.364.131.543.2.357.157.532.233.331.212.5.3.327.221.48.315a4.189,4.189,0,0,1,.5.279,1.5,1.5,0,0,0,.562-.5c-.017-.016-.014-.079-.031-.092,0,0-.067.068-.067.068-.023-.021,0-.095-.02-.115a5.061,5.061,0,0,0-.548-.308c-.172-.109-.306-.294-.5-.392s-.412-.1-.606-.181-.345-.257-.541-.333-.392-.153-.59-.219-.429-.04-.625-.1-.4-.141-.6-.192c-.216-.058-.427-.076-.616-.122-.227-.056-.423-.145-.6-.182a4.025,4.025,0,0,0-.614-.091c-.318-.023-.317-.124-.634-.1-.051,0,.059.048.076.1.11.294.058.233.191.6.063.169.111.378.192.6.067.183.105.393.182.6.07.188.163.378.238.58s.216.364.289.564.094.413.166.611.165.391.237.585.11.415.179.6c.076.209.138.413.205.6.081.221.2.4.263.574.112.3.153.471.181.546a3.007,3.007,0,0,0-.715.149,3.456,3.456,0,0,0-.7.231,3.368,3.368,0,0,0-.58.395,2.834,2.834,0,0,0-.505.475,1.985,1.985,0,0,0-.366.586,1.3,1.3,0,0,0-.133.412c0,.149.123.263.183.391a.941.941,0,0,0,.34.465,1.621,1.621,0,0,0,.573.122,2.337,2.337,0,0,0,.576.017,3.068,3.068,0,0,0,.585-.068A3.457,3.457,0,0,0,62.1,108.992Zm-1.328,5.532a4.1,4.1,0,0,0,.535.2,3.368,3.368,0,0,0,.57.065,2.933,2.933,0,0,0,.573-.018,2.05,2.05,0,0,0,.531-.215,1.084,1.084,0,0,0,.575-.643,3.726,3.726,0,0,0,.041-.5,3.41,3.41,0,0,0,.222-.574c.051-.166.149-.351.214-.569.056-.179.054-.393.118-.6.056-.185.119-.379.181-.581s.155-.371.214-.57.083-.4.143-.593.151-.378.208-.572.152-.381.211-.574.036-.419.094-.609.124-.395.182-.581c.061-.2.151-.384.205-.567a1.12,1.12,0,0,1,.516.226c.245.139.2.225.458.337.091-.025.247-.309.423-.653a4.214,4.214,0,0,0-.572-.353c-.2-.123-.38-.282-.547-.379a4.1,4.1,0,0,0,.136-.663.37.37,0,0,0,.043.037,6.007,6.007,0,0,0,.574.345c.284.177.226.291.536.412.088-.021.262-.323.451-.661a2.181,2.181,0,0,0-.468-.355c-.154-.1-.358-.164-.536-.272s-.354-.221-.512-.315c-.293-.179-.232-.193-.49-.343-.038-.022-.034-.029-.076-.012s-.036.018-.049.059c-.062.217-.071.215-.134.433-.087.291-.028.231-.136.594-.05.166-.1.363-.169.583-.054.179-.128.369-.192.576-.054.185-.126.376-.187.576s-.1.388-.157.586-.076.4-.135.594-.162.374-.221.568-.166.378-.223.569-.02.423-.079.613-.18.378-.237.565c-.062.206-.064.42-.118.6-.068.22-.212.39-.262.557-.091.3-.145.57-.167.643a3.363,3.363,0,0,0-.6-.48,3.625,3.625,0,0,0-.661-.356,4.178,4.178,0,0,0-.6-.207,3.4,3.4,0,0,0-.634.013,2.6,2.6,0,0,0-.618.07,1.894,1.894,0,0,0-.616.174,1.1,1.1,0,0,0-.418,1.177,1.843,1.843,0,0,0,.312.565,2.752,2.752,0,0,0,.477.416,3.287,3.287,0,0,0,.509.367A3.623,3.623,0,0,0,60.773,114.524Zm5.179-9s-.02.008-.02.01.027.025.021.043C65.955,105.559,65.949,105.536,65.952,105.522Zm16.819,7.444c-.23.049-.227.059-.459.106a2.688,2.688,0,0,1-.459.1,4.705,4.705,0,0,1-.6.041c-.3,0-.3.017-.6.017s-.3-.07-.606-.07-.3.067-.6.067-.3.011-.6.011h-.606c-.3,0-.3-.1-.607-.095a3.491,3.491,0,0,0-.2.488c-.089.228-.042.244-.123.475-.016.045-.132.1-.084.108.288.047.3-.062.593-.062s.294.058.587.058.294-.012.586-.012.294.013.587.013.294-.031.587-.031.3.044.589.044.3-.012.589-.012.295-.039.59-.039.294.007.589.007.295-.055.589-.055.3,0,.591,0a4.07,4.07,0,0,0,.586,0,1.188,1.188,0,0,0-.123-.52,1.289,1.289,0,0,0-.316-.483.68.68,0,0,0-.51-.205A2.589,2.589,0,0,0,82.771,112.966Zm1.444,1.1a.42.42,0,0,1,0,.065c-.241.008-.183-.046-.482-.049-.14,0-.3.034-.489.031.243,0,.241-.037.482-.051A4.822,4.822,0,0,1,84.215,114.065ZM67.079,118.2c.077.154.3.215.533.23.214.011.427.077.637.074s.427-.052.638-.069.424-.056.632-.089.418-.087.624-.136.42-.08.621-.147.409-.125.606-.206.359-.235.55-.334.4-.154.58-.268.311-.279.477-.388.386-.162.549-.276.355-.208.515-.331.288-.291.444-.425.261-.312.407-.453.286-.281.426-.432.3-.268.433-.429.225-.329.35-.5.225-.327.339-.5.2-.343.309-.524.234-.327.334-.512.159-.367.253-.555.254-.323.345-.514.165-.368.252-.56c.126-.283.137-.278.261-.562s.1-.294.23-.577.115-.29.241-.574.151-.273.277-.557c.1-.222.213-.412.294-.6.1-.226.155-.444.235-.624.106-.236.2-.431.281-.6.114-.247.148-.466.232-.626a5.743,5.743,0,0,1,.4-.529c.179-.221.121-.272.314-.48.148-.147.371-.239.467-.392a.482.482,0,0,0-.047-.566,2.667,2.667,0,0,0-.395-.477,3.25,3.25,0,0,0-.514-.347,2.293,2.293,0,0,0-.566-.249,1.6,1.6,0,0,0-.622-.094,2.719,2.719,0,0,0-.521.186,3.787,3.787,0,0,0-.507.207,4.089,4.089,0,0,0-.452.287,2.066,2.066,0,0,1-.637.051c-.205,0-.436.012-.644.012a4.213,4.213,0,0,1-.615-.078c.026-.048.119-.21.255-.472.078-.151.143-.338.236-.517s.133-.364.219-.532.221-.338.3-.489c.155-.3.216-.214.222-.5,0-.052,0,.03-.049.03-.308,0-.308-.087-.617-.087s-.311.094-.62.094-.309-.068-.62-.068-.311-.025-.618-.025-.312.034-.622.034-.31.05-.622.05-.357-.2-.6,0c-.219.179-.1.251-.114.533a2.429,2.429,0,0,0,.669.088c.312.009.656-.02.686-.02-.02.16-.1.326-.133.5-.01.04-.023.076-.034.116s-.036.059-.048.093c-.043.193-.044.4-.1.607s-.114.388-.179.588-.151.378-.219.575-.12.389-.193.584-.078.409-.154.6-.22.353-.3.543-.177.371-.257.56-.1.409-.18.6-.235.345-.323.53-.18.371-.268.556-.118.4-.207.583-.186.372-.278.552-.223.351-.316.528-.179.378-.272.553c-.1.191-.218.362-.312.534-.1.192-.173.389-.267.555-.109.2-.275.34-.367.5-.125.216-.18.425-.262.556-.13.2-.26.365-.365.514-.148.214-.241.4-.345.528-.324.393-.432.439-.438.441-.018.022-.072.016-.072.043s.028.029.032.046.016-.011.02-.008.019-.005.021,0a.175.175,0,0,0,.12.144.561.561,0,0,0,.533-.047,3.2,3.2,0,0,0,.5-.374c.138-.131.287-.28.436-.445.131-.146.207-.356.345-.525s.241-.324.37-.493.245-.327.368-.5.28-.308.4-.479.183-.378.3-.549.326-.282.442-.452.179-.383.29-.553.284-.316.392-.485c.176-.267.084-.329.261-.6.1-.146.284-.275.411-.485.1-.163.2-.347.317-.547.1-.169.2-.358.308-.553.1-.174.13-.4.237-.591.1-.176.268-.323.375-.517.1-.177.226-.345.331-.538s.193-.369.3-.56.159-.384.263-.577c.245-.135.234-.046.556-.041.172,0,.369.016.564.017s.391.1.564.1a3.949,3.949,0,0,0,.565-.05c-.013.043-.114.285-.223.625-.06.188-.054.43-.127.656-.065.208-.193.406-.259.614-.072.227-.115.454-.175.644-.117.369-.2.621-.2.622,0-.019-.249-.046-.552-.117-.163-.038-.348-.086-.535-.126s-.368-.122-.533-.158a4.557,4.557,0,0,0-.537-.148c-.032.017-.167.345-.314.615s-.142.287-.284.576c0,.008-.03.043,0,.05,0,0,.011-.027.014-.025s.025-.04.034-.037c.1.039.323.09.593.154.185.045.395.089.6.135s.4.176.585.215a6.054,6.054,0,0,0,.607.082.191.191,0,0,0-.115.133,2.23,2.23,0,0,1-.069.466c-.06.222-.154.446-.154.45a3.174,3.174,0,0,0-.576-.168c-.184-.048-.386-.144-.6-.195s-.42-.116-.606-.16a4.24,4.24,0,0,0-.618-.092,4.549,4.549,0,0,0-.315.56,5.386,5.386,0,0,0-.316.561,1.781,1.781,0,0,0,.523.191c.162.043.34.126.535.173s.379.037.559.081c.2.047.384.1.547.133.3.07.575.11.606.117-.033.088-.079.2-.114.292-.071.168-.214.321-.3.509-.078.172-.106.375-.193.558s-.173.345-.265.524-.226.32-.323.494-.225.32-.326.487-.124.386-.236.548-.249.3-.368.459-.294.265-.42.412-.2.352-.337.487a5.741,5.741,0,0,1-.485.336,5.166,5.166,0,0,1-.44.388c-.185.115-.39.166-.558.256-.192.1-.339.265-.514.341a3.859,3.859,0,0,1-.594.143,3.007,3.007,0,0,1-.6.087,2.643,2.643,0,0,1-.6-.009,3.359,3.359,0,0,1-.6-.111,5.535,5.535,0,0,1-.555-.25,1.223,1.223,0,0,0-.336.343c-.147.205-.082.249-.222.461C67.116,117.968,67.02,118.085,67.079,118.2Zm6.718-9.973s-.045.03-.047.029.052-.057.054-.061S73.8,108.222,73.8,108.231Zm-.943,2.115a.607.607,0,0,0,.073.041c0-.008-.04-.008-.039-.011C72.867,110.366,72.858,110.339,72.853,110.346Zm-25.278-.184c0,.187.006.382-.006.589-.01.191.071.4.051.6s-.109.388-.132.585-.049.4-.075.588c-.028.206-.049.406-.078.588-.033.219-.073.416-.1.585-.061.352-.09.586-.091.594a.408.408,0,0,0,.062.014s-.006.047,0,.047c.187.006.188-.059.377-.056.274,0,.273.066.547.072s.278-.1.553-.091.273.09.55.1.3.1.541-.033c.152-.082-.1-.289.053-.362.285-.137.337-.009.653,0s.316.054.631.058.316-.015.633-.01.315.057.631.059.317.017.633.023.316.019.633.021.317-.041.634-.038.336-.118.645-.05c.065.014-.048.1-.069.166a1.825,1.825,0,0,0,.6.091c.183.006.393-.052.615-.049.2,0,.411-.008.614-.006.22,0,.431.009.615.009a5.4,5.4,0,0,0,.606-.034,2.211,2.211,0,0,0,.04-.582c0-.186,0-.4-.006-.637,0-.2-.041-.417-.045-.637s.05-.429.044-.642-.006-.438-.011-.64c-.006-.235-.094-.449-.1-.635-.01-.385.057-.32.051-.64,0-.246-.019-.47-.007-.677.018-.252,0-.48.028-.681a6.06,6.06,0,0,1,.141-.667c.071-.272.112-.489.174-.653.065-.219.125-.2.127-.428a.3.3,0,0,0-.068-.246,1.3,1.3,0,0,0-.551-.265,3.963,3.963,0,0,0-.609-.085,5.333,5.333,0,0,0-.613-.081,4.183,4.183,0,0,0-.547.088c-.192.028-.369.091-.532.129a4.783,4.783,0,0,1-.527.088c-.03.2.034.216-.089.373-.192.248-.227-.021-.594-.028-.188,0-.4-.014-.627-.019l-.627-.01c-.223,0-.44.025-.627.021-.309-.007-.505.016-.584.014.121-.1.214-.264.386-.409.135-.115.322-.2.474-.333s.264-.278.408-.415.306-.238.443-.378.229-.319.356-.462a4.1,4.1,0,0,0,.349-.486c.112-.168.284-.3.376-.478s.105-.4.186-.579c.086-.2.166-.38.237-.551s.192-.315.259-.457c.11-.239.189-.44.276-.44.259,0,.307.175.505,0s.06-.236.083-.491a2.551,2.551,0,0,0-.6-.061c-.173,0-.378.05-.6.046-.189,0-.391,0-.6,0s-.4-.048-.6-.05-.406.026-.6.026-.41-.035-.6-.036c-.221,0-.424.014-.6.014-.365,0-.311-.107-.607-.062a4.293,4.293,0,0,0,.037.7c.014.187-.022.405-.023.652,0,.2.025.418,0,.65a5.806,5.806,0,0,1-.024.66,3.619,3.619,0,0,1-.259.623,5.155,5.155,0,0,1-.292.6c-.11.2-.206.406-.328.585-.134.2-.322.346-.443.5-.193.252-.315.421-.386.5a4.2,4.2,0,0,1-.68,0c-.345,0-.345.037-.688.035s-.342,0-.685.01a2.207,2.207,0,0,0-.036.578c0,.175.082.377.091.594.005.192-.017.4-.009.6s.008.407.016.6c.01.219.078.421.086.6C47.676,109.917,47.568,109.865,47.576,110.162Zm-.361,4.065s0,.036-.007.036,0-.059,0-.071C47.208,114.2,47.218,114.22,47.215,114.227Zm10.631-.083v.091s.008-.03.008-.032C57.851,114.171,57.843,114.143,57.846,114.143Zm-6.435-12.951c-.025,0-.013-.049-.041-.055-.007,0,.021.019.016.012S51.377,101.19,51.411,101.193Zm-1.563,6.275c.316-.019.315-.07.631-.07s.315.049.63.049.316-.022.629-.022.318.014.634.014.315-.042.63-.042.317-.018.632-.018.317.02.634.02.317.091.633.091a1.882,1.882,0,0,0-.056.564c0,.193.044.413.042.634s0,.439,0,.634c0,.313-.04.56-.04.632,0,.014.008.079,0,.079-.316,0-.316-.009-.633-.013s-.315-.009-.631-.013-.315-.087-.629-.09-.317.065-.633.06-.316-.036-.632-.04-.316-.031-.632-.035-.317.061-.635.057-.358.113-.65-.014.063-.3.071-.653c.006-.188-.04-.406-.034-.62s.076-.429.08-.618A3.817,3.817,0,0,0,49.848,107.468Zm0,3.256c.316-.019.315-.072.632-.072s.315.038.629.038.315-.034.631-.034.317-.014.634-.014.315.107.631.107.316-.1.633-.1.317.019.633.019.32-.01.637-.009a2.528,2.528,0,0,0-.059.624c-.005.182-.031.389-.033.6s.054.416.053.6a3.806,3.806,0,0,1-.081.6c0,.011.065.057.056.057-.316,0-.316-.077-.631-.079s-.316-.026-.632-.03-.317.1-.633.1-.315-.027-.631-.029-.316-.054-.632-.058-.317.063-.633.059-.316,0-.634-.006a1.133,1.133,0,0,1-.614-.107c-.268-.112-.051-.2-.041-.536,0-.179.052-.381.058-.585s.014-.406.018-.585C49.847,110.963,49.848,110.761,49.848,110.724Zm-2.033-4.08c0,.094-.142-.023-.236-.028,0,0-.009.009-.006.008C47.7,106.574,47.815,106.549,47.815,106.643ZM53.829,126.5c.033,0,.013-.046.013-.089h-.014c0-.169-.008-.169-.005-.339s.028-.371.03-.608c0-.187.033-.392.036-.608,0-.2-.06-.4-.055-.612s-.006-.4,0-.609.03-.409.032-.611,0-.414,0-.611c0-.214.038-.419.041-.609,0-.227-.043-.436-.041-.612a6.227,6.227,0,0,1,.054-.64c.126.143.226.339.373.494s.3.266.444.412.265.3.418.44.3.265.461.4.319.245.481.371.353.2.521.317.311.256.484.364.32.255.5.355.367.186.546.279.355.21.535.3.39.145.57.231.386.153.566.232.386.151.567.227c.2.082.373.195.551.265.207.078.418.1.592.16.218.079.4.188.56.242a3.773,3.773,0,0,1,.579.248c.014,0,.191-.186.441-.392.126-.1.255-.252.411-.381.14-.117.319-.2.466-.321s.245-.3.384-.421c.155-.133.338-.215.466-.322.255-.215.239-.153.4-.379a.55.55,0,0,0-.256-.4c-.087,0-.505.427-.514.433a1.449,1.449,0,0,1-.453.1,1.232,1.232,0,0,1-.459-.055c-.168-.056-.37-.089-.581-.162-.179-.06-.366-.148-.566-.22-.18-.066-.38-.107-.575-.183s-.36-.175-.552-.251-.365-.172-.552-.252-.384-.135-.567-.219-.373-.163-.553-.253-.318-.27-.49-.367-.412-.11-.584-.221-.318-.265-.482-.383-.36-.211-.519-.337-.273-.318-.426-.45-.306-.276-.453-.413-.306-.279-.446-.42-.277-.313-.413-.457-.345-.255-.472-.4c-.147-.167-.259-.345-.376-.487-.156-.191-.233-.375-.328-.5a2.389,2.389,0,0,0,.53.067c.168,0,.364-.065.581-.065.18,0,.376.009.578.009.187,0,.382.032.58.032s.387-.067.582-.067.39.034.583.034.393-.029.581-.029c.207,0,.4.023.582.023.219,0,.413.058.582.058.358,0,.291-.006.58-.021.008-.012-.009-.059-.009-.092a1.721,1.721,0,0,0-.154-.536,1.208,1.208,0,0,0-.3-.45c-.134-.124-.277-.3-.489-.3-.282.046-.269.115-.547.174-.23.05-.225.073-.454.117a2.935,2.935,0,0,1-.461.1,4.572,4.572,0,0,1-.591-.032c-.292,0-.292-.053-.589-.053s-.294.023-.586.023-.3.077-.589.077-.294-.1-.589-.1-.3.04-.59.04-.391.231-.608.029c-.193-.177.022-.283.032-.545s.02-.263.031-.528-.147-.321.042-.5.219.034.466.051.281.126.461-.043c.2-.191.242-.274.062-.492s-.241-.056-.519-.071-.279-.026-.558-.035c-.3-.008-.3.056-.593.056s-.3-.03-.592-.03-.3.027-.593.027-.3-.014-.594-.014-.386-.244-.607-.045c-.2.184.047.292.039.567s-.088.273-.094.548-.012.274-.02.551.206.339-.006.516c-.242.2-.284.011-.6.009s-.317.068-.633.066-.317-.047-.633-.049-.318.047-.634.043-.317-.059-.634-.064-.318.043-.635.04-.315-.074-.633-.078-.318.069-.636.066-.316-.083-.634-.087-.319-.028-.637-.021a3.681,3.681,0,0,0-.2.5c-.089.227-.038.248-.118.478-.016.042-.111.011-.07.029.273.122.211-.013.578-.013.168,0,.37,0,.592,0,.185,0,.384.048.593.048.192,0,.389.03.593.03s.4-.079.594-.079.4.114.6.114.4-.012.6-.012c.21,0,.409-.067.6-.067.223,0,.423.016.594.016.339,0,.576.008.61.008-.048.132-.123.323-.223.555-.07.162-.161.338-.258.535-.081.166-.14.361-.241.545-.092.165-.25.3-.36.477s-.138.375-.256.544-.239.313-.364.474-.265.293-.4.446-.308.248-.449.392-.256.3-.406.436-.242.321-.4.448-.365.171-.53.287-.291.273-.464.377-.343.193-.521.285-.379.117-.564.2-.331.237-.52.3c-.212.074-.44.061-.631.126-.213.071-.4.188-.586.248-.219.069-.411.16-.6.216-.224.066-.433.1-.618.148-.233.062-.441.1-.62.137a4.67,4.67,0,0,1-.632.054c-.524.06-.592,0-.6-.019-.064,0-.065-.037-.073.027a1.446,1.446,0,0,0,0,.56,1.874,1.874,0,0,0,.617.056c.171-.007.376-.029.608-.049.184-.016.378-.133.594-.159.189-.023.4,0,.608-.037.192-.031.4-.027.606-.068s.382-.125.585-.172.4-.043.6-.094.38-.133.578-.192.387-.111.583-.177.393-.1.584-.177.36-.19.552-.271.381-.134.569-.221.335-.238.518-.332.366-.169.545-.27.351-.2.527-.307.387-.147.558-.264.325-.246.49-.369.273-.309.433-.439.347-.217.5-.355.266-.327.414-.473c0,.061-.028.35-.028.694,0,.193.11.416.11.652,0,.21-.048.432-.048.654s-.029.443-.029.653c0,.24-.033.462-.033.654,0,.389.017.327.017.652,0,.122-.147.273-.432.35a5.142,5.142,0,0,1-.6.04,5.9,5.9,0,0,1-.6.065,5.63,5.63,0,0,0-.594.009c-.207.022-.419.011-.6.04a2.9,2.9,0,0,0-.593.164c-.028.277.01.279-.007.558a5.167,5.167,0,0,0,.566-.016c.173,0,.376.033.592.026.188-.008.392.025.592.019s.4-.1.59-.108c.216-.01.422.041.6.035.35-.017.294-.128.586-.12s.3.048.592.066.3.007.591.025.3.037.592.054.3,0,.6.027A4.823,4.823,0,0,0,53.829,126.5Zm11.326-2.846a.183.183,0,0,1,.036,0s-.045.032-.048.034S65.149,123.658,65.155,123.655ZM60.31,117.7s0,.029,0,.029a5.91,5.91,0,0,1-.833-.021C59.06,117.67,59.891,117.7,60.31,117.7ZM53.8,126.357s.006.052.006.054-.06-.06-.06-.062A.485.485,0,0,0,53.8,126.357Zm-6.353,0a.754.754,0,0,1-.079-.01c0-.012.018,0,.018-.007C47.422,126.352,47.449,126.347,47.448,126.358Zm-17.044.051s.2.021.552.028c.177,0,.38-.007.6,0l.6.011c.2,0,.407,0,.6,0,.219,0,.427-.043.6-.041.356.007.3.131.6.121.011-.011-.019-.3-.019-.673,0-.179.083-.39.08-.625,0-.194-.034-.4-.037-.625,0-.2-.058-.409-.061-.622s-.008-.414-.011-.626.037-.418.033-.626-.062-.42-.065-.625.01-.426.007-.626c0-.222.053-.433.05-.627,0-.235-.024-.446-.029-.625-.005-.387,0-.312,0-.624,0-.23-.067-.444-.064-.646,0-.23.053-.444.061-.644.006-.235.028-.449.04-.645.015-.241,0-.456.02-.645.027-.25.115-.452.143-.632.041-.264.06-.467.1-.634.044-.283.063-.281.092-.565,0-.21-.172-.367-.386-.515a2.219,2.219,0,0,0-.584-.3,4.2,4.2,0,0,0-.655-.106,4.361,4.361,0,0,0-.654-.052,2.45,2.45,0,0,0-.563.014,4.617,4.617,0,0,0-.548.16,2.132,2.132,0,0,0-.516.29c-.314,0-.314-.084-.628-.084s-.314.067-.627.067-.312.016-.626.016-.314-.045-.628-.045-.311.022-.625.022-.314-.081-.626-.081-.245.079-.627.079c-.182,0-.395.026-.628.026-.2,0-.409-.056-.627-.056s-.417-.04-.63-.04-.424.086-.629.086-.432-.012-.629-.012c-.233,0-.446-.063-.628-.063a3.484,3.484,0,0,1-.621-.021,1.756,1.756,0,0,0-.513-.27,1.505,1.505,0,0,0-.59-.162,4.817,4.817,0,0,0-.6,0,4.135,4.135,0,0,0-.591.119,1.559,1.559,0,0,0-.535.285c-.007.011.016.27.006.646,0,.184-.044.4-.048.634,0,.2-.008.413-.011.634s.053.422.05.636-.01.428-.013.637-.051.433-.053.635c0,.234-.047.448-.048.633-.005.386.094.318.093.634,0,.193-.038.4-.042.615,0,.2.016.4.009.615s-.117.4-.126.611,0,.409-.008.614.064.418.053.622-.123.408-.136.611-.021.415-.033.614.065.427.052.623c-.017.22-.028.426-.042.616-.017.232-.038.438-.052.613a3.4,3.4,0,0,1-.093.6c.031.005.028.027.061.03h0c.084,0,.085-.022.171-.021.3.005.3-.03.6-.026s.3.047.6.052.3.047.6.052l.6.013a4.4,4.4,0,0,0,.6.037c.066-.065-.075-.5.026-.919.188,0,.436.058.662.055.2,0,.4-.1.624-.1.2,0,.408.1.622.1s.412-.076.625-.072.411.056.622.063.411.042.623.052.416.01.623.027c.316.019.255-.069.635-.049.184.01.4.042.629.055.2.01.411.1.628.109s.426-.016.636-.006.432.034.634.045c.233.012.447.038.632.047.37.02.622.008.638.01C30.366,125.953,30.4,126.382,30.4,126.409Zm3.488.049s0-.076,0-.076c-.071,0-.042.036-.134.034C33.723,126.484,33.821,126.457,33.893,126.459ZM18.37,126.3s-.014.05-.015.047.082-.056.083-.06S18.37,126.3,18.37,126.3Zm3.268-10.684c.028,0,.266.016.593.016.166,0,.361-.04.573-.04.18,0,.375.051.574.051s.381-.021.574-.021.389-.041.576-.041.393.045.575.045c.213,0,.408.021.575.021.348,0,.285-.047.572-.047s.235.017.592.017c.175,0,.376-.047.593-.047.188,0,.39.068.6.068s.4-.017.6-.017.409-.017.6-.017c.217,0,.42.064.594.064a3.145,3.145,0,0,0,.593-.05,2.183,2.183,0,0,0-.063.588c0,.173.038.374.033.593,0,.188-.073.387-.076.591s.034.4.033.6.067.4.064.593c0,.216-.109.417-.11.594,0,.275.012.488.012.591,0,.045.078.045.041.049a4.114,4.114,0,0,1-.623-.027c-.177,0-.39.019-.626.018-.191,0-.4.075-.625.072l-.625-.005-.626,0c-.205,0-.416-.06-.627-.061s-.416-.048-.626-.049-.421.08-.629.079-.421-.095-.626-.1-.424.009-.627.006c-.218,0-.429.032-.631.032-.223,0-.432-.05-.626-.051-.236,0-.449.088-.626.088a3.149,3.149,0,0,1-.628-.059,5.638,5.638,0,0,0,.016-.571c.006-.174.034-.374.039-.592,0-.188.005-.389.009-.593s-.044-.4-.042-.6.071-.4.072-.594c0-.218-.034-.421-.033-.595C21.637,115.918,21.639,115.691,21.639,115.621Zm8.712,8.621c0,.041.044.113.016.119-.181.016-.391-.074-.592-.056-.185.017-.377.048-.574.066s-.379.078-.573.095-.384.062-.576.078-.393-.044-.584-.032-.388.107-.575.115-.4-.021-.579-.021c-.3-.01-.232-.04-.592-.06-.173-.008-.376.005-.594-.006-.187-.01-.387-.034-.6-.046-.192-.01-.395,0-.593-.007s-.4-.038-.6-.048-.407-.027-.593-.037c-.218-.011-.421,0-.594-.006a4.879,4.879,0,0,1-.591-.062,4.912,4.912,0,0,0,.023-.587c0-.178.036-.387.039-.607,0-.195-.016-.4-.013-.608s.036-.413.038-.611c0-.222-.021-.432-.019-.611,0-.362-.169-.352.043-.569s.2.019.587.022c.179,0,.39,0,.626,0,.193,0,.4-.054.626-.053.2,0,.41.008.627.009.2,0,.411.065.625.066s.416-.07.627-.069.418.016.626.017.421-.025.629-.023.422-.006.629-.006.423.031.626.034c.219,0,.429.011.628.014.224,0,.435.049.628.05.238,0,.45-.06.628-.059.391,0,.624.018.625.018a3.339,3.339,0,0,0-.034.584c-.006.17.033.369.03.581,0,.185-.084.382-.085.579s.04.392.039.58c0,.21-.014.408-.014.58Zm43.371-5.608c-.034-.011-.024-.05-.058-.034a.062.062,0,0,0-.043.051c-.074.235-.058.241-.121.479a1.937,1.937,0,0,0,.511.292c.261.115.521.187.547.2-.05.01-.071.135-.116.279-.057.183-.157.373-.235.593-.068.188-.082.411-.174.616-.084.186-.238.347-.349.538a5.181,5.181,0,0,1-.309.558,4.767,4.767,0,0,1-.439.464,4.542,4.542,0,0,1-.458.449,5.366,5.366,0,0,1-.57.286,5.429,5.429,0,0,1-.551.321,5.543,5.543,0,0,1-.587.259c-.2.059-.433.047-.652.089-.1.147-.071.184-.084.36a5.282,5.282,0,0,0,.673.011,3.957,3.957,0,0,0,.628.076c.193-.019.39-.132.609-.176a5.341,5.341,0,0,0,.627-.078,5.5,5.5,0,0,0,.578-.257,5.27,5.27,0,0,0,.554-.3,5.423,5.423,0,0,0,.569-.284c.171-.124.312-.3.477-.446s.279-.334.433-.488.314-.3.457-.461.353-.28.486-.443.227-.393.35-.555c.149-.194.319-.343.428-.5a3.608,3.608,0,0,0,.328-.547,2.651,2.651,0,0,0-.556-.262c-.172-.069-.366-.164-.578-.245-.188-.073-.41-.092-.611-.168s-.386-.191-.575-.262c-.217-.081-.4-.2-.577-.263C73.979,118.661,74.015,118.743,73.721,118.633Zm3.475,1.4s0-.069,0-.066a.629.629,0,0,0-.089.078C77.131,120.019,77.188,120.053,77.2,120.036ZM10.117,105.354a1.1,1.1,0,0,0-.419-.262,1.4,1.4,0,0,0-.462-.021,2.256,2.256,0,0,0,.207-.563c.009-.043-.062,0-.107-.005a3.107,3.107,0,0,0-.7-.022c-.051.007.046.043.061.092.087.292.1.29.175.584-.014,0-.049-.023-.063-.023a.891.891,0,0,0-.819.261.919.919,0,0,0-.3.377,1.533,1.533,0,0,0-.124.493,2.878,2.878,0,0,0,.433,1.1,1.511,1.511,0,0,0,.467.358,1.243,1.243,0,0,0,.56.2,1.247,1.247,0,0,0,.538-.245,1.527,1.527,0,0,0,.514-.294,1.768,1.768,0,0,0,.247-.544,3.8,3.8,0,0,0,.061-1.074A.991.991,0,0,0,10.117,105.354Zm32.845,3.819a4.006,4.006,0,0,0,.633.11,3.363,3.363,0,0,0,.636-.022,2.831,2.831,0,0,0,.636-.047,1.788,1.788,0,0,0,.58-.288,1.132,1.132,0,0,0,.358-.538c.008-.027,0-.252.035-.6.019-.167.059-.363.08-.586.02-.18.042-.378.064-.589.018-.187-.006-.389.014-.594s.113-.379.135-.582-.013-.4.007-.6.067-.389.087-.588.01-.4.03-.593.1-.39.119-.587-.067-.407-.048-.6.083-.394.1-.587.04-.4.06-.591.025-.4.043-.593c.021-.21.07-.406.087-.588.021-.221.057-.417.073-.588.028-.278.017-.485.028-.593a2.037,2.037,0,0,0-.8-.156,2.672,2.672,0,0,0-.13.607c-.025.174.03.391,0,.621-.025.189-.056.394-.083.612-.025.195-.048.4-.075.611s-.087.4-.111.607,0,.413-.021.618-.127.4-.152.6.023.42,0,.622-.116.407-.14.606.011.424-.011.621c-.024.218-.081.42-.1.609-.027.231-.073.436-.093.613-.037.319-.052.546-.06.62a3.9,3.9,0,0,0-.519-.316,3.415,3.415,0,0,0-.559-.226,3.981,3.981,0,0,0-.608-.191,3.485,3.485,0,0,0-.64-.038,2.6,2.6,0,0,0-.62.158,1.8,1.8,0,0,0-.589.244,1.081,1.081,0,0,0-.322.548,1.06,1.06,0,0,0-.02.63,1.719,1.719,0,0,0,.294.572,2.726,2.726,0,0,0,.492.407,3.308,3.308,0,0,0,.523.361A3.769,3.769,0,0,0,42.962,109.173ZM88.2,124.885c.161-.03.317-.219.518-.338a5.529,5.529,0,0,0,.5-.333c.17-.129.359-.228.5-.35.25-.217.481-.368.5-.386a4.6,4.6,0,0,0-.439-.536c-.127-.149-.312-.284-.46-.452s-.294-.338-.426-.485c-.247-.274-.2-.254-.421-.483-.145-.131-.3-.246-.461-.367s-.308-.243-.472-.352-.3-.257-.476-.356-.343-.2-.519-.287-.365-.165-.545-.237-.378-.134-.562-.188a5.555,5.555,0,0,0-.592-.057,5.2,5.2,0,0,0-.578-.16,1.23,1.23,0,0,0-.288.375c-.021.038.016.051.032.091s.01.052.052.061a1.419,1.419,0,0,1,.553.119,3.891,3.891,0,0,1,.521.233c.152.086.259.269.419.391a3.929,3.929,0,0,1,.434.354,3.768,3.768,0,0,1,.422.384,4.241,4.241,0,0,1,.213.536,3.491,3.491,0,0,1,.289.491c.031.088.042.086.071.174.076.226.13.436.194.623.079.233.156.432.226.607a3.008,3.008,0,0,0,.287.567C87.851,124.758,87.983,124.923,88.2,124.885Zm-2.412-9.012c-.279.044-.292-.023-.566.036-.231.051-.208.153-.44.2a2.777,2.777,0,0,1-.473.03,4.782,4.782,0,0,1-.593-.01c-.3,0-.3.049-.594.049s-.3-.007-.594-.007-.3-.054-.6-.054-.3.034-.594.034-.295,0-.594,0-.3-.033-.593-.033-.3.005-.592.005-.3.019-.6.019-.3.013-.594.013-.3.007-.594.007-.3-.068-.6-.068-.3.07-.594.07-.3.026-.6.026-.3-.071-.6-.071-.3-.034-.6-.022c-.029.022-.062.386-.146.682-.088.312-.226.285-.238.61,0,.033.054-.026.087-.017.009,0-.018-.024-.011-.024.423.008.423.052.844.056.3,0,.3.008.6.015s.3.03.6.036.3.011.6.018.3.031.6.036.3-.1.607-.089.358-.134.565.089.016.278.011.593-.01.313-.013.627-.028.315-.032.631.067.315.063.629-.072.254-.075.629c0,.186-.007.4-.009.631,0,.2.02.419.017.632s.032.43.031.633c0,.231-.06.446-.061.633,0,.376.03.314.03.63,0,.354-.029.354-.029.708s0,.354,0,.709c0,.121-.146.252-.432.329a4.652,4.652,0,0,1-.594.085,5.7,5.7,0,0,1-.6.054,5.181,5.181,0,0,0-.6-.031c-.207.022-.415.037-.593.066a1.5,1.5,0,0,0-.514.171c-.027.279-.1.271-.118.551a1.731,1.731,0,0,0,.6.063c.173,0,.376-.034.59-.042.191-.007.389-.085.59-.094s.4-.03.592-.038c.216-.01.42.042.6.035.35-.016.294-.074.588-.066s.295.045.59.062.295.03.589.047.3-.013.6,0,.29.1.587.12a3.956,3.956,0,0,0,.6.032c.032,0-.05-.092-.047-.125,0,0,.033.005.033,0,0-.266.039-.265.039-.53,0-.3-.028-.3-.027-.605s.045-.3.048-.6-.078-.23-.075-.6c0-.174.013-.378.014-.605,0-.188-.011-.39-.01-.606,0-.193.084-.4.087-.6s-.076-.4-.076-.606.087-.4.088-.606-.042-.406-.039-.607.036-.409.037-.606-.032-.416-.03-.608c0-.215,0-.419,0-.606,0-.229.033-.432.034-.6,0-.377-.3-.525-.022-.63s.307-.018.6-.014.295.065.593.07.3-.059.6-.055.3.063.594.068.3-.026.594-.022.3.068.594.074.3-.037.6-.034a4.064,4.064,0,0,0,.594-.042,1.491,1.491,0,0,0-.074-.639,1.982,1.982,0,0,0-.317-.607A.65.65,0,0,0,85.789,115.873Zm-11.272,1.469s-.017-.039-.02-.039a.58.58,0,0,0-.018.065C74.492,117.374,74.52,117.334,74.517,117.342Zm.948,9.006H75.41c0-.012.039-.026.039-.032C75.443,126.326,75.466,126.336,75.465,126.348Zm6.379.087a.229.229,0,0,1-.049-.031s.037,0,.042.006S81.846,126.435,81.843,126.435Zm4.321-9.034c0-.26.25-.047.507-.041a.084.084,0,0,1-.005.042C86.4,117.537,86.165,117.661,86.165,117.4Zm-47.177-4.547s.067,0,.067,0a.029.029,0,0,1,0-.011,2.47,2.47,0,0,0-.222-.673,2.006,2.006,0,0,0-.427-.549.9.9,0,0,0-.6-.346c-.241.023-.237.061-.478.1s-.233.085-.472.121c-.259.039-.265.005-.523.045s-.261.053-.521.079a3.757,3.757,0,0,1-.643.04c-.186,0-.4-.1-.643-.1-.2,0-.418.059-.641.059s-.429.047-.645.047-.436-.079-.646-.079-.441-.03-.644-.03c-.238,0-.458.046-.643.046a5.389,5.389,0,0,0-.663.042.4.4,0,0,0,.012-.07,1.884,1.884,0,0,0,.2-.53c.04-.171.014-.379.057-.572s.1-.386.135-.556a2.787,2.787,0,0,1,.139-.55c.115-.319.091-.33.223-.643s.169-.3.3-.612.162-.3.294-.615,0-.391.272-.594c.23-.171.252-.045.539-.041s.289-.044.573-.04.288.1.575.1.288-.048.576-.044a2.6,2.6,0,0,0,.576.011c.042-.005-.057-.03-.068-.072a2.874,2.874,0,0,0-.234-.643,2.362,2.362,0,0,0-.4-.551.745.745,0,0,0-.559-.282,3.623,3.623,0,0,0-.618.153,3.471,3.471,0,0,1-.452.246,1.448,1.448,0,0,1-.5.036c-.307,0-.239,0-.614,0-.178,0-.388.069-.615.069-.2,0-.4-.046-.617-.046-.2,0-.408.056-.614.056s-.415-.008-.62-.008-.422-.08-.617-.08c-.227,0-.437.057-.614.057-.364,0-.617.031-.633.031,0-.009.038-.032.04-.038.031-.04.05-.342.121-.679.045-.215.1-.452.138-.666.072-.369.142-.32.206-.653,0,0,.047-.221.1-.442.047-.2.083-.4.133-.6.053-.214.053-.437.116-.609.1-.281.241-.48.37-.48.259,0,.264.067.524.038.064-.066.033-.271.026-.53-.014-.015-.207.022-.559.013-.172,0-.373-.028-.593-.031-.186,0-.387-.025-.593-.028s-.4.034-.6.033-.4-.089-.6-.091-.408-.011-.6-.013c-.222,0-.424.1-.6.094-.363,0-.3-.083-.594-.085-.049,0-.069-.008-.1.034s.04.034.059.079c0,0,.063.233.174.687.047.188.073.421.121.694.034.208.14.433.168.692.042.327.027.329.072.653s.03.329.075.655l.089.654a1.881,1.881,0,0,1,.029.649c-.157,0-.258.038-.415.038s-.311-.038-.466-.038c-.3,0-.3.045-.6.042s-.3-.077-.593-.078-.234.016-.6.012c-.173,0-.377.033-.6.03-.187,0-.388-.019-.6-.021s-.4-.026-.6-.028-.4-.016-.6-.017-.409-.036-.6-.037c-.221,0-.423.079-.6.077a4.978,4.978,0,0,0-.593,0,2.1,2.1,0,0,0-.227.441c-.1.244-.128.235-.223.481-.017.045-.061.142-.016.149.287.047.3-.038.586-.038s.289-.015.578-.015.289-.057.579-.057.29.115.58.115.308-.166.589-.1c.06.162.1.427.192.683.07.191.233.375.3.612.063.2.124.424.18.656.042.177.031.379.061.575s0,.383.019.577.071.38.084.57.023.389.029.575c.007.2.038.4.039.576-.015,0-.06.014-.077.014-.313,0-.313-.038-.628-.04s-.312.028-.625.025-.314.017-.626.015-.312-.076-.626-.078-.315.032-.628.029-.314-.045-.627-.048-.313.037-.628.032-.312-.047-.627-.049-.314,0-.628,0-.317.1-.631.093-.316-.083-.631-.076c-.03.022-.1.339-.2.633-.1.31-.179.284-.277.595-.013.042-.019.057.026.064a2.792,2.792,0,0,0,.6-.019c.3,0,.3.026.606.026s.3.034.607.034.3.036.606.036.3.016.606.016.3-.008.607-.008.3-.093.607-.093.3-.011.6-.011.3.006.605.006.3.049.606.049.3-.032.6-.032.3.077.607.077.3-.015.607-.015.3-.05.6-.05.3.007.605.007h.606c.3,0,.3.033.605.033s.3-.074.608-.074.3.116.606.116.3-.014.607-.014.3-.019.606-.019.3-.011.605-.011.3-.069.609-.069.3.087.609.087.3-.045.606-.045.3.032.607.032.3-.066.609-.066.3.014.606.014.3-.027.609-.027.3,0,.607,0,.3.088.609.088.3-.088.606-.088.3.077.606.077.3-.051.608-.051.3.055.609.055.3-.063.607-.063.3-.018.609-.018.3.06.609.06.3,0,.611,0,.3-.054.609-.054.307.047.611.042C39.042,112.912,38.989,112.88,38.988,112.854ZM27.35,105.829c.293,0,.293.072.585.078-.2,0-.388-.048-.586-.048C27.349,105.856,27.35,105.831,27.35,105.829Zm2.112,1.094c-.025.077,0,.305-.064.6-.037.169-.152.352-.2.566-.038.184.011.4-.029.6s-.135.378-.174.575-.053.4-.09.593-.11.4-.143.579c-.042.217,0,.432-.033.6a3.562,3.562,0,0,1-.166.544,4.788,4.788,0,0,1-.627.061c-.317,0-.317.02-.631.02s-.314-.05-.627-.05-.316-.054-.631-.054-.315.021-.629.021-.315-.017-.629-.017-.316.035-.633.035-.316.049-.631.049c.005,0-.025-.049-.025-.069a3.157,3.157,0,0,0,.02-.6c-.016-.174-.07-.371-.093-.589-.02-.188-.092-.382-.113-.588s-.022-.4-.043-.6-.042-.4-.063-.6-.042-.405-.063-.593c-.023-.221-.036-.423-.054-.594-.039-.347-.051-.633-.054-.652.333-.009.334.025.666.025.168,0,.364.051.58.054.18,0,.375-.051.576-.048.186,0,.38.085.58.087s.385.023.58.026.39-.061.583-.06.391.036.581.037.395-.052.583-.05c.206,0,.4.024.581.025.218,0,.415,0,.582.006a4.461,4.461,0,0,1,.589.046C29.494,106.928,29.468,106.9,29.463,106.923Zm.057-.071c-.239,0-.239.018-.48.014s-.558.191-.512-.047.272-.036.513-.036.243,0,.483.017C29.538,106.8,29.526,106.852,29.519,106.852Zm1.144,4.78c0-.006,0,.074,0,.071.336,0,.336-.027.672-.019C31.115,111.684,30.9,111.632,30.663,111.632Zm3.141,1.227c.323,0,.323.008.645.008s.323-.029.645-.029.323-.015.645-.015.322.008.645.008.323,0,.646,0,.322-.006.646-.006.322.038.647.038.324.051.647.053c0,.006.018-.019.009-.019-.287.016-.205.014-.576.012-.161,0-.353-.047-.573-.048-.175,0-.368.032-.575.031-.18,0-.373.021-.576.021-.182,0-.374,0-.573,0s-.376-.082-.575-.082-.377.031-.573.031-.381.01-.579.01S34,112.858,33.8,112.858ZM12.45,107.126a1.218,1.218,0,0,0,.539-.23,1.434,1.434,0,0,0,.451-.347,1.807,1.807,0,0,0,.338-.483,1.763,1.763,0,0,0,.033-.59,1.431,1.431,0,0,0-.073-.471.9.9,0,0,0-.227-.415,1.034,1.034,0,0,0-.409-.275,1.525,1.525,0,0,0-.507.01.347.347,0,0,1-.041-.257c.017.045.108.046.181.067.186.051.176.139.37.124a1.607,1.607,0,0,0,.782-.218c.087-.039-.06-.043-.141-.091-.144-.088-.164-.055-.308-.142s-.121-.211-.3-.257a1.053,1.053,0,0,0-.718.4,3.1,3.1,0,0,0-.048.433c-.011,0,.013-.017,0-.017a.705.705,0,0,0-.517-.083c-.149.028-.274.176-.418.292s-.289.2-.35.373a1.6,1.6,0,0,0-.083.523,1.79,1.79,0,0,0,.1.593,1.745,1.745,0,0,0,.322.5,1.473,1.473,0,0,0,.475.333A1.226,1.226,0,0,0,12.45,107.126Zm31.157,8.392a5.014,5.014,0,0,0,.6-.143,3.717,3.717,0,0,0,.565-.258,2.981,2.981,0,0,0,.45-.424,2.59,2.59,0,0,0,.47-.4,1.8,1.8,0,0,0,.247-.576,1.369,1.369,0,0,0-.023-.621s.055-.209.134-.583c.036-.168.064-.371.11-.594.04-.182.094-.378.14-.588.038-.188.061-.391.1-.6.04-.19.049-.4.092-.6s.09-.389.132-.59.073-.395.115-.593.072-.4.114-.6.081-.4.122-.6.147-.387.188-.58.1-.4.141-.59.054-.412.1-.6c.044-.21.042-.419.081-.6.047-.224.1-.422.133-.592.077-.371.219-.279.216-.583a2.807,2.807,0,0,0-.841-.217,2.7,2.7,0,0,0-.163.554c-.04.167-.079.367-.127.589-.039.18-.071.38-.116.589-.04.187-.084.384-.127.588s-.1.384-.142.585-.033.4-.076.6-.064.4-.105.594-.081.4-.122.593-.125.388-.165.582-.036.409-.078.6-.1.4-.142.587c-.044.21-.091.407-.13.589-.047.223-.1.421-.131.591-.064.314-.143.557-.155.619a2.5,2.5,0,0,0-.558-.311,3.071,3.071,0,0,0-.617-.138,3.7,3.7,0,0,0-.635-.037,4.361,4.361,0,0,0-1.188.377,3.9,3.9,0,0,0-.556.239,3.024,3.024,0,0,0-.51.339,2.242,2.242,0,0,0-.377.478,1.778,1.778,0,0,0-.327.527,1.371,1.371,0,0,0,.08.61,1.3,1.3,0,0,0,.235.554,1.661,1.661,0,0,0,.484.359,2.372,2.372,0,0,0,.531.312,3.412,3.412,0,0,0,.62.025A3.447,3.447,0,0,0,43,115.6,4.188,4.188,0,0,0,43.608,115.518Zm-.536-2.338a2.756,2.756,0,0,1,.657-.138,1.3,1.3,0,0,1,.635.2c.083.076.115.059.168.159a.714.714,0,0,1-.289.43,1.7,1.7,0,0,1-.43.275,2.283,2.283,0,0,1-.472.234,2.394,2.394,0,0,1-.528.036,1.685,1.685,0,0,1-.511-.092c-.247-.068-.371-.176-.4-.274,0-.009,0-.015,0-.027a.582.582,0,0,1,.226-.435,1.852,1.852,0,0,1,.429-.287A3.139,3.139,0,0,1,43.071,113.181Zm-41.7-3.2c-.177.137-.429.256-.59.386s-.286.347-.441.484c-.173.15-.4.226-.544.363-.172.162-.309.332-.447.47-.177.179-.331.333-.453.468a3.325,3.325,0,0,0-.4.515,2.183,2.183,0,0,0,.763.437,3.212,3.212,0,0,0,.437-.468c.116-.138.2-.355.362-.532.135-.141.3-.279.471-.435.147-.137.348-.228.524-.37.159-.127.287-.31.468-.439s.357-.221.546-.338.359-.219.553-.322.365-.214.563-.305c.182-.084.384-.118.572-.186s.365-.175.554-.228.41-.03.6-.073.4-.111.58-.143c.218-.039.42-.045.591-.067a1.868,1.868,0,0,0,.551-.153c.017-.028.019-.054.019-.14a1.341,1.341,0,0,0,.025-.47,3.755,3.755,0,0,0-.2-.425c-.169-.309-.2-.288-.38-.592s-.115-.341-.3-.64a4.075,4.075,0,0,0-.617.126c-.163.041-.345.155-.569.206-.179.04-.391,0-.605.047-.185.037-.369.147-.58.185-.188.032-.388.069-.6.1-.192.029-.4.028-.6.052s-.39.09-.6.11-.4.014-.605.029-.4.021-.6.032-.4.049-.605.052-.4-.095-.606-.095c-.225,0-.437,0-.64,0-.225,0-.438.034-.639.028-.225,0-.436-.05-.636-.06-.225-.011-.437,0-.64-.021-.218-.019-.43-.011-.636-.041s-.426-.023-.635-.067-.388-.177-.6-.233c-.2-.052-.392-.125-.606-.189a1.349,1.349,0,0,0,.205-.43c.06-.159.1-.347.156-.508.1-.274.166-.231.2-.494a.979.979,0,0,0-.525-.281c-.02.01-.087.275-.2.592-.056.158-.107.347-.176.547-.06.175-.143.352-.206.54s-.169.352-.229.535-.1.383-.158.559c-.068.2-.109.4-.162.557a4.444,4.444,0,0,0-.19.543c.017.021.223.058.576.174.163.052.34.166.569.226.179.047.38.083.6.13.185.04.393.032.607.071.191.033.388.069.6.1.193.027.384.135.594.156.2.022.4.061.609.078.2.015.4-.08.614-.07s.4.128.605.133.4-.089.612-.091.4-.017.61-.024.4.025.611.011.406-.014.613-.031S1.168,110,1.374,109.976Zm-2.759,2.667s-.011-.006-.013-.011.019-.018.025-.022C-1.382,112.623-1.377,112.633-1.384,112.643Zm-4.456-5.531-.006-.01c.011,0,.007.02.019.025C-5.839,107.122-5.831,107.117-5.84,107.112Zm-31.923-.351a2.253,2.253,0,0,0-.467-.44,3.876,3.876,0,0,0-.618-.173,4.5,4.5,0,0,0-.622-.108,4.74,4.74,0,0,0-.625-.119,2.974,2.974,0,0,0-.615.075,4.353,4.353,0,0,0-.605.14c-.176.063-.34.207-.543.306a5.419,5.419,0,0,0-.582.232c-.166.1-.325.243-.5.374-.157.118-.3.27-.466.413-.148.131-.287.285-.439.439s-.314.265-.456.429-.254.32-.387.49-.236.332-.359.509-.236.336-.351.517-.207.353-.314.54-.228.343-.328.532c-.132.25-.155.236-.285.486s-.085.273-.216.521-.169.228-.3.476-.082.293-.224.554-.208.225-.35.486-.082.3-.225.556-.155.255-.3.514a1.443,1.443,0,0,1-.08.126,2.17,2.17,0,0,1-.3.354c-.112.12-.192.242-.391.236-.229,0-.4-.239-.441-.629-.018-.16-.042-.349-.049-.593,0-.165.021-.36.026-.593,0-.173.062-.366.07-.586.007-.179,0-.377.007-.593.009-.182.005-.379.018-.592.01-.185.051-.38.063-.591s.058-.418.072-.62.013-.422.03-.625.034-.42.05-.623.037-.421.056-.622-.006-.426.016-.625c.022-.215.016-.425.038-.623.023-.216.116-.415.14-.613.026-.216-.012-.43.015-.626.029-.219.089-.42.117-.613.033-.222.131-.415.162-.6.038-.226.021-.439.056-.622.044-.239.028-.455.063-.622a2.977,2.977,0,0,1,.177-.6c.013-.045.036-.018.006-.055s-.011-.03-.06-.026c-.285.023-.283.042-.569.066s-.281.061-.566.084-.288,0-.575.019-.284.045-.57.065c-.185.006-.369-.023-.542-.025-.19,0-.373.022-.54.014-.2-.009-.378-.1-.532-.111-.314-.027-.552-.039-.57-.041-.012.03.021.045.017.077,0,0,.01,0,.01,0,0,.021-.057.017-.059.037-.031.347.031.352.012.7a2.113,2.113,0,0,0,.615.071c.2,0,.431-.066.637-.065.35,0,.677.033.678.033s-.048.009-.048.011c-.009.117-.007.341-.037.64-.019.184-.023.4-.05.637-.021.2-.079.407-.1.632-.021.2-.049.415-.073.635s-.089.415-.114.633-.027.426-.05.64-.059.425-.082.637-.063.426-.088.637-.027.431-.05.64c-.031.278.048.287.018.564s-.068.273-.1.55-.037.276-.068.555.006.283-.023.562-.04.276-.07.555c-.022.226-.089.433-.1.634-.017.226.009.44.007.642a6.345,6.345,0,0,0,.041.635,4.744,4.744,0,0,0,.042.636,4.464,4.464,0,0,0,.206.6,1.622,1.622,0,0,0,.257.474,1.7,1.7,0,0,0,.421.33,2.627,2.627,0,0,0,.451.3,2.159,2.159,0,0,0,.531.12,2.294,2.294,0,0,0,.609-.029,2.134,2.134,0,0,0,.586-.177,2.346,2.346,0,0,0,.491-.363,3.042,3.042,0,0,0,.35-.436c.105-.138.216-.288.323-.459.093-.151.192-.308.287-.481.085-.156.136-.342.226-.517.082-.159.23-.294.317-.47s.16-.332.247-.507c.125-.25.126-.25.254-.5s.146-.239.273-.489.113-.259.241-.508.069-.281.2-.531c.1-.185.274-.323.37-.5s.217-.353.319-.523.145-.4.254-.568.309-.293.424-.453.245-.334.369-.485c.136-.166.249-.335.384-.473a5.183,5.183,0,0,1,.449-.411,3.757,3.757,0,0,1,.5-.347,2.8,2.8,0,0,1,.533-.3,2.111,2.111,0,0,1,.609-.1.821.821,0,0,1,.638.267,1.1,1.1,0,0,1,.208.576,3.416,3.416,0,0,1,.122.623c0,.188-.062.4-.071.637-.008.193.005.406-.01.638-.023.316-.031.315-.055.631s.031.322.006.64-.032.252-.061.634c-.014.185-.093.4-.11.629-.016.2.028.421.011.64s0,.43-.021.642-.113.429-.129.632c-.018.234-.024.451-.039.637-.029.383-.048.316-.073.633-.016.2.019.4,0,.6s-.019.4-.042.6-.034.4-.06.6-.082.393-.112.589-.108.39-.141.585-.073.393-.112.586.015.415-.029.6-.175.373-.225.562-.121.384-.18.568-.082.4-.149.582c-.073.2-.093.405-.174.576a4.465,4.465,0,0,1-.292.529,2.113,2.113,0,0,1-.44.41,4.868,4.868,0,0,1-.519.344,4.776,4.776,0,0,1-.516.343,5.3,5.3,0,0,1-.579.226c-.2.071-.377.193-.576.244s-.42.019-.625.056-.407.067-.612.1c-.259.032-.248.124-.508.151s-.263-.018-.522.012c-.2.019-.41.058-.632.081-.2.023-.412.08-.628.107s-.432-.036-.644-.006-.4.167-.613.2-.432.026-.636.074-.431.066-.628.126a5.569,5.569,0,0,0-.594.242,3.2,3.2,0,0,0-.54.314,2.617,2.617,0,0,0-.068.74c-.006.371,0,.371-.01.742,0,.067-.045.144.014.173s.09-.056.142-.095c.162-.123.3-.263.462-.37s.325-.236.49-.336.351-.191.522-.279.366-.16.541-.237.38-.116.561-.18.36-.183.545-.234.4-.052.584-.091.392-.052.583-.079.386-.086.578-.1.39-.089.584-.1c.3-.014.3.032.6.02s.3,0,.6-.023.3-.017.6-.042l.6-.048c.193-.016.4-.106.594-.123.33-.025.3-.019.6-.051.2-.029.423.047.619,0s.395-.132.585-.19.4-.123.583-.193.354-.23.531-.313c.2-.091.393-.149.562-.245.193-.108.342-.255.494-.359a4.807,4.807,0,0,0,.5-.344c.135-.131.314-.238.454-.393.127-.139.175-.36.3-.526a5.691,5.691,0,0,0,.339-.486c.1-.162.3-.281.391-.467.085-.171.131-.374.21-.567a4.6,4.6,0,0,0,.19-.6c.043-.185.006-.407.045-.629.037-.195.083-.4.116-.616.03-.2.129-.4.156-.612s-.038-.421-.013-.634.154-.4.176-.613-.032-.422-.012-.634.047-.413.064-.624.043-.418.061-.626-.007-.424.01-.632.059-.419.073-.625.045-.422.059-.626,0-.427.013-.628c.012-.219.012-.429.023-.628.012-.225.1-.43.112-.623.012-.236.054-.447.061-.626.015-.314.016-.535.016-.629a4.985,4.985,0,0,0-.134-.643,5.135,5.135,0,0,0-.045-.651,4.3,4.3,0,0,0-.218-.615,4.053,4.053,0,0,0-.313-.572,4.513,4.513,0,0,0-.387-.519A5.485,5.485,0,0,0-37.764,106.761Zm-14.777-3.008h-.005s.024-.022.022-.023S-52.541,103.75-52.541,103.753Zm.116-.677s-.1,0-.1-.007a.1.1,0,0,0,.023.026S-52.42,103.076-52.424,103.076Zm41,18.03c.133-.14.306-.23.428-.36s.249-.282.371-.409.23-.3.356-.424.322-.205.455-.318a5.2,5.2,0,0,1,.431-.332c.028-.02.073-.054.058-.083-.205-.352-.277-.3-.52-.633-.021.011.019.046,0,.059,0,0-.008-.02-.008-.019s-.042-.045-.047-.041c-.16.11-.285.263-.429.385s-.275.263-.411.394-.328.212-.459.352-.2.333-.33.476c-.2.211-.256.153-.454.363s-.123.282-.322.492-.2.208-.4.414c-.14.136-.289.264-.433.389s-.306.239-.455.356-.343.187-.5.3-.309.23-.471.33-.309.238-.477.329a3.873,3.873,0,0,1-.607.216,2.671,2.671,0,0,1-.622.164.838.838,0,0,1-.59-.171.7.7,0,0,1-.186-.773c.069-.325.032-.333.1-.657s.134-.309.2-.635c.06-.291.052-.292.107-.584s.079-.286.137-.575-.031-.309.027-.6.129-.278.184-.568.014-.3.07-.592a3.575,3.575,0,0,0,.1-.612,5.565,5.565,0,0,0,.036-.621,4.93,4.93,0,0,0-.016-.626,4.729,4.729,0,0,0-.214-.588,3.422,3.422,0,0,0-.142-.613,3.3,3.3,0,0,0-.395-.486,2.378,2.378,0,0,0-.366-.432A3.738,3.738,0,0,0-17.66,114a3.7,3.7,0,0,0-.489-.3,3.864,3.864,0,0,0-.538-.2,3.7,3.7,0,0,0-.555-.155,4.066,4.066,0,0,0-.577-.017c-.183,0-.384.015-.593.036-.187.018-.377.088-.581.123-.188.036-.387.056-.583.107s-.379.1-.569.168-.348.188-.53.269-.4.091-.571.189a5.928,5.928,0,0,0-.5.323c-.161.113-.257.311-.407.444s-.319.231-.459.372-.316.244-.446.395-.232.321-.356.477-.261.3-.377.459-.153.372-.263.538-.254.3-.358.474-.164.359-.266.533-.268.3-.365.475-.119.382-.213.559-.221.319-.311.5c.059-.163.157-.3.208-.443.1-.268,0-.265.082-.5.1-.272.143-.256.246-.529s.149-.255.252-.527.079-.282.182-.556.131-.261.234-.534.092-.278.2-.551.052-.294.155-.567.174-.245.277-.519c.079-.195.157-.389.235-.579s.121-.4.2-.594.205-.369.286-.558.106-.412.188-.6.185-.378.27-.565.132-.4.219-.587.2-.371.287-.557.221-.361.31-.546.138-.4.23-.585.213-.363.307-.546.2-.37.3-.55.239-.35.336-.528.125-.413.225-.591.267-.334.368-.508.16-.4.262-.572c.112-.188.244-.352.348-.523.114-.187.182-.391.287-.558.117-.188.238-.359.345-.522.124-.189.244-.36.349-.514.135-.2.295-.342.395-.483.23-.325.346-.5.353-.511.05-.063.155-.049.116-.119s-.084.012-.163.022a3.907,3.907,0,0,0-.644.016c-.19.019-.4.111-.635.129-.207.017-.426.037-.645.05s-.437.057-.645.061c-.234.008-.453-.063-.646-.069-.339-.024-.342.017-.682-.011s-.338-.043-.678-.072-.34-.032-.681-.06-.339-.025-.681-.041a1.578,1.578,0,0,0-.2.453,2.749,2.749,0,0,0-.123.5,2.76,2.76,0,0,0,.567.131c.187.037.384.138.573.17a3.986,3.986,0,0,0,.594.044c-.015.031-.051.071-.078.129-.06.11-.123.306-.239.548-.075.157-.121.358-.215.56-.078.167-.247.309-.336.5-.08.173-.091.388-.177.578-.08.173-.172.351-.256.538s-.244.322-.328.509-.161.36-.243.546-.062.405-.143.591-.175.357-.254.541-.226.336-.3.521-.1.39-.183.574-.149.372-.226.557-.213.347-.29.532-.123.387-.2.571-.2.353-.275.537-.111.39-.183.574-.153.374-.223.556-.142.379-.21.561-.107.392-.172.574c-.053.148-.142.332-.225.562-.061.168-.116.363-.193.574-.065.175-.173.351-.248.552-.069.178-.105.38-.183.578-.07.181-.188.35-.266.546s-.09.392-.168.586-.122.381-.2.573-.21.347-.288.537-.194.35-.275.54-.1.393-.183.582-.165.364-.249.552-.118.388-.2.574-.224.34-.311.526-.208.346-.295.531-.081.411-.17.6a3.481,3.481,0,0,0-.346.6,2.179,2.179,0,0,0,0,.688,1.632,1.632,0,0,0,.1.668,1.571,1.571,0,0,0,.376.554,1.412,1.412,0,0,0,.6.314,1.593,1.593,0,0,0,.583.011,1.624,1.624,0,0,0,.54-.207,3.248,3.248,0,0,0,.489-.311,3.911,3.911,0,0,0,.426-.466c.129-.143.232-.324.362-.5.114-.16.266-.309.384-.5.1-.167.156-.378.263-.568s.232-.34.33-.535c.114-.254.084-.267.2-.524s.174-.228.285-.483.061-.279.171-.536c.075-.186.205-.356.285-.554s.1-.4.18-.6.191-.366.278-.558.137-.391.228-.581.226-.351.322-.535.174-.378.277-.559.223-.349.334-.525.253-.327.372-.5.184-.382.313-.543.3-.3.437-.446.3-.283.454-.422.265-.331.429-.457.344-.212.505-.314a5.643,5.643,0,0,1,.513-.3,4.921,4.921,0,0,1,.536-.265,4.1,4.1,0,0,1,.583-.136,3.318,3.318,0,0,1,.594-.057,1.552,1.552,0,0,1,.554.147,1.032,1.032,0,0,1,.415.351,1.418,1.418,0,0,1,.333.441,2.657,2.657,0,0,1,.113.552,4.275,4.275,0,0,1-.024.559,5.023,5.023,0,0,1-.068.553c-.071.326-.154.307-.227.634s-.083.324-.155.648-.008.342-.081.667-.042.334-.114.661-.162.307-.237.633-.081.329-.161.658c-.047.2-.062.42-.111.651-.044.207-.093.424-.129.649s-.045.438-.061.659a5.5,5.5,0,0,0,.054.659,3.749,3.749,0,0,0,.053.652,2.277,2.277,0,0,0,.239.614,2.356,2.356,0,0,0,.364.564,2.1,2.1,0,0,0,.585.321,1.7,1.7,0,0,0,.618.23,5.441,5.441,0,0,0,.633-.041,5.26,5.26,0,0,0,.612-.155,4.993,4.993,0,0,0,.617-.134c.188-.071.372-.171.571-.27.179-.088.372-.176.563-.29.171-.1.361-.2.543-.327.165-.114.289-.3.463-.437.158-.124.356-.213.524-.356s.319-.263.483-.41.312-.272.471-.423.273-.315.429-.47.263-.327.416-.484c.182-.19.248-.127.43-.318s.184-.193.358-.392S-11.609,121.3-11.428,121.106Z" transform="translate(52.599 -98.777)"/>
</svg>
