<svg xmlns="http://www.w3.org/2000/svg" width="31.56" height="25.313" viewBox="0 0 31.56 25.313">
  <g id="navi03" transform="translate(-672.226 -137.44)">
    <g id="_9.23" data-name=" 9.23" style="isolation: isolate">
      <g id="グループ_36" data-name="グループ 36" style="isolation: isolate">
        <path id="パス_15" data-name="パス 15" d="M687.187,151.969a34.448,34.448,0,0,0-1.227,3.561H672.394v-.342c2.043-1.652,4.087-3.333,5.873-4.957,2.229-2.136,4.46-4.643,4.46-7.064s-1.562-3.96-4.46-3.96a5.994,5.994,0,0,0-4.908,2.535l-.483-.285,2.045-2.364a7.5,7.5,0,0,1,4.869-1.653c3.159,0,6.059,1.709,6.059,4.7,0,2.45-1.45,4.045-4.981,6.951l-5.315,4.416h7.433c2.008,0,2.566-.057,3.755-1.71Z"/>
        <path id="パス_16" data-name="パス 16" d="M691.91,145.531a20.892,20.892,0,0,1,4.647-1.083c4.572,0,6.914,2.393,6.914,4.7,0,1.709-1,3.247-3.2,4.672a12.509,12.509,0,0,1-6.392,2.051,7.033,7.033,0,0,1-3.494-.883c-.521-.342-.669-.57-.669-.883a1.479,1.479,0,0,1,.78-1,.7.7,0,0,1,.817.142,7.417,7.417,0,0,0,4.461,1.481c3.2,0,4.647-1.937,4.647-4.358,0-2.621-1.934-4.53-5.725-4.53a12.924,12.924,0,0,0-3.828.6l1.412-8.66h10.446l.148.228-.967,1.795h-8.958Z"/>
      </g>
    </g>
    <g id="FRI" style="isolation: isolate">
      <g id="グループ_37" data-name="グループ 37" style="isolation: isolate">
        <path id="パス_17" data-name="パス 17" d="M678.834,159.479a3.343,3.343,0,0,0-2.675-.833c-1.433,0-2.151.332-2.151.727,0,.47.911.69,2.442.966,1.512.276,3.2.571,3.2,1.261,0,.614-1.627,1.153-4.127,1.153-.775,0-1.337-.044-1.8-.087-.5-.051-.815-.1-1.028-.126a3.021,3.021,0,0,1-.464-.953l.252-.031c.29.413,1.3,1.059,3.313,1.059,1.453,0,2.306-.326,2.306-.79s-1.027-.69-2.422-.959c-1.182-.226-3.12-.546-3.12-1.242,0-.6,1.453-1.11,3.856-1.11a21.163,21.163,0,0,1,2.345.138c.078.225.194.476.33.8Z"/>
        <path id="パス_18" data-name="パス 18" d="M691.621,158.677c-1.163.037-1.512.132-1.589.42a3.016,3.016,0,0,0-.116.991v.646c0,.7-.311,1.217-1.376,1.587a10.761,10.761,0,0,1-3.353.426,13.045,13.045,0,0,1-2.964-.289c-1.163-.294-1.628-.758-1.628-1.455v-1.624c0-.627-.175-.652-1.532-.7V158.6h4.749v.075c-1.4.025-1.57.081-1.57.7v1.474c0,.847.775,1.631,3.585,1.631,3.081,0,3.585-.941,3.585-1.857v-.539a2.743,2.743,0,0,0-.136-1.022c-.1-.264-.387-.345-1.724-.389V158.6h4.069Z"/>
        <path id="パス_19" data-name="パス 19" d="M703.786,158.677c-1.066.031-1.415.1-1.492.427a4.58,4.58,0,0,0-.1,1.041v2.6h-.329l-8.41-3.368h-.039v1.674a3.584,3.584,0,0,0,.116,1.085c.1.346.446.427,1.764.458v.076h-4.109v-.076c1.124-.031,1.532-.106,1.628-.458a4.314,4.314,0,0,0,.117-1.085v-1.429c0-.471-.058-.546-.408-.684a3.909,3.909,0,0,0-1.627-.257V158.6h2.694l8.061,3.154h.058v-1.611a4.377,4.377,0,0,0-.1-1.029c-.1-.32-.465-.414-1.821-.439V158.6h3.992Z"/>
      </g>
    </g>
  </g>
</svg>
