<svg xmlns="http://www.w3.org/2000/svg" width="30.922" height="26.197" viewBox="0 0 30.922 26.197">
  <g id="navi01" transform="translate(-672.362 -15.767)">
    <g id="_9.23" data-name=" 9.23" style="isolation: isolate">
      <g id="グループ_30" data-name="グループ 30" style="isolation: isolate">
        <path id="パス_5" data-name="パス 5" d="M687.187,30.3a34.448,34.448,0,0,0-1.227,3.561H672.394v-.342c2.043-1.652,4.087-3.333,5.873-4.957,2.229-2.137,4.46-4.643,4.46-7.065s-1.562-3.96-4.46-3.96a5.992,5.992,0,0,0-4.908,2.536l-.483-.285,2.045-2.365a7.508,7.508,0,0,1,4.869-1.652c3.159,0,6.059,1.709,6.059,4.7,0,2.45-1.45,4.046-4.981,6.951l-5.315,4.416h7.433c2.008,0,2.566-.057,3.755-1.709Z"/>
        <path id="パス_6" data-name="パス 6" d="M698.229,23.088c3.16.485,5.055,2.308,5.055,4.359,0,4.7-7.061,6.752-9.515,6.752a6.977,6.977,0,0,1-3.457-.884c-.483-.341-.631-.6-.631-.911,0-.37.482-.74.78-.94a.706.706,0,0,1,.78.028,7.511,7.511,0,0,0,4.461,1.539c2.639,0,4.46-1.4,4.46-4.473,0-2.877-2.564-3.988-4.721-3.988a8.026,8.026,0,0,0-2.044.284l-.148-.427c3.419-.911,5.538-1.966,5.538-4.187,0-1.966-1.673-2.935-3.531-2.935a5.643,5.643,0,0,0-4.349,2.08l-.409-.257,1.524-1.851a7.085,7.085,0,0,1,4.5-1.51h.037c3.234,0,5.278,1.567,5.278,3.7a2.556,2.556,0,0,1-1.041,1.966A17.621,17.621,0,0,1,698.229,23Z"/>
      </g>
    </g>
    <g id="FRI" style="isolation: isolate">
      <g id="グループ_31" data-name="グループ 31" style="isolation: isolate">
        <path id="パス_7" data-name="パス 7" d="M681.914,38.153a1.5,1.5,0,0,0-.593-.545c-.433-.251-.98-.324-2.964-.324h-1.413c-.661,0-.729.029-.729.236v1.886h2.393c2.075,0,2.235-.1,2.462-.545h.3V40.18h-.3c-.227-.464-.387-.582-2.462-.582h-2.393v1.43c0,.693.182.744,2.052.788V41.9h-5.905v-.089c1.733-.044,1.915-.1,1.915-.788V37.984c0-.678-.182-.722-1.778-.767v-.088h9.552a4.6,4.6,0,0,0,.182,1Z"/>
        <path id="パス_8" data-name="パス 8" d="M695.752,41.964c-.183,0-.411,0-.593-.007a8.357,8.357,0,0,1-3.9-.679c-.776-.361-1.574-.8-2.28-1.186a3.428,3.428,0,0,0-1.87-.339h-.524v1.311c0,.634.183.708,1.892.752V41.9h-5.721v-.089c1.732-.044,1.915-.118,1.915-.752V37.947c0-.634-.183-.678-1.824-.737v-.081h5.4a16.524,16.524,0,0,1,3.647.266c.821.184,1.391.5,1.391.936,0,.633-1.3,1.016-2.964,1.245.41.265,1.367.759,2.052,1.091.8.383,1.391.641,1.892.84a5.388,5.388,0,0,0,1.527.376Zm-8.275-2.344a9.709,9.709,0,0,0,2.461-.206c.821-.214,1.208-.531,1.208-.966,0-.825-1.435-1.179-3.1-1.179a10.349,10.349,0,0,0-1.231.052c-.16.036-.228.11-.228.331V39.62Z"/>
        <path id="パス_9" data-name="パス 9" d="M696.162,41.9v-.089c1.756-.044,1.939-.11,1.939-.752V37.969c0-.641-.183-.707-1.939-.752v-.088h5.814v.088c-1.755.045-1.938.111-1.938.752v3.095c0,.642.183.708,1.938.752V41.9Z"/>
      </g>
    </g>
  </g>
</svg>
