<svg xmlns="http://www.w3.org/2000/svg" width="32.06" height="26.241" viewBox="0 0 32.06 26.241">
  <g id="navi02" transform="translate(-672.339 -75.941)">
    <g id="_9.23" data-name=" 9.23" style="isolation: isolate">
      <g id="グループ_33" data-name="グループ 33" style="isolation: isolate">
        <path id="パス_10" data-name="パス 10" d="M687.187,90.47a34.366,34.366,0,0,0-1.227,3.561H672.394v-.342c2.043-1.652,4.087-3.333,5.873-4.957,2.229-2.137,4.46-4.644,4.46-7.065s-1.562-3.96-4.46-3.96a5.992,5.992,0,0,0-4.908,2.536l-.483-.285,2.045-2.365a7.508,7.508,0,0,1,4.869-1.652c3.159,0,6.059,1.709,6.059,4.7,0,2.45-1.45,4.046-4.981,6.951l-5.315,4.416h7.433c2.008,0,2.566-.057,3.755-1.709Z"/>
        <path id="パス_11" data-name="パス 11" d="M701.055,88.875v2.393c0,1.908.185,2.193,2.936,2.421v.342h-9.07v-.342c2.936-.228,3.123-.542,3.123-2.479V88.875h-9.256v-.6c3.568-4.045,7.546-8.489,11.263-12.307h1V87.792H704.4v1.083Zm-3.011-9.715h-.074c-2.379,2.535-4.87,5.356-7.4,8.632h7.472Z"/>
      </g>
    </g>
    <g id="FRI" style="isolation: isolate">
      <g id="グループ_34" data-name="グループ 34" style="isolation: isolate">
        <path id="パス_12" data-name="パス 12" d="M680.113,98.334c-.411-.479-1.277-.98-3.146-.98-1.687,0-2.53.391-2.53.855,0,.553,1.071.811,2.872,1.135,1.778.324,3.761.671,3.761,1.482,0,.722-1.915,1.356-4.855,1.356-.912,0-1.573-.052-2.12-.1-.593-.059-.958-.111-1.208-.148a3.535,3.535,0,0,1-.548-1.12l.3-.037c.342.487,1.527,1.246,3.9,1.246,1.709,0,2.713-.384,2.713-.929s-1.209-.811-2.85-1.128c-1.39-.265-3.67-.641-3.67-1.459,0-.7,1.71-1.3,4.537-1.3a24.822,24.822,0,0,1,2.757.162c.092.265.229.56.388.943Z"/>
        <path id="パス_13" data-name="パス 13" d="M688.867,102.079v-.089c1.321-.059,1.618-.133,1.321-.449-.295-.295-.8-.752-1.413-1.312h-4.582c-.456.427-.843.8-1.162,1.135-.479.486-.3.567,1.436.626v.089h-4.536v-.089a3.084,3.084,0,0,0,2.439-.781l4.764-3.958.411-.051q2.12,1.989,4.377,4.009a2.922,2.922,0,0,0,2.416.781v.089Zm-2.234-3.921h-.069c-.752.619-1.459,1.275-2.143,1.864h4.149Z"/>
        <path id="パス_14" data-name="パス 14" d="M703.822,98.372a2.039,2.039,0,0,0-.729-.657c-.342-.191-.844-.257-2.69-.257h-1.482v3.795c0,.59.183.693,2.142.737v.089h-6.154v-.089c1.869-.044,2.074-.147,2.074-.737V97.458h-1.139c-2.189,0-2.691.073-3.01.265a2.152,2.152,0,0,0-.73.656h-.318a9.92,9.92,0,0,0,.274-1.26h.227a2.608,2.608,0,0,0,1.254.184H702.5a2.647,2.647,0,0,0,1.163-.184h.25a4.5,4.5,0,0,0,.229,1.238Z"/>
      </g>
    </g>
  </g>
</svg>
