<svg id="title01" xmlns="http://www.w3.org/2000/svg" width="614.039" height="37.322" viewBox="0 0 614.039 37.322">
  <path id="パス_64" data-name="パス 64" d="M103,671.762c-.778,0-1.751,0-2.529-.055-8.851-.276-12.645-1.656-16.633-5.079-3.307-2.7-6.711-6.017-9.727-8.889-1.847-1.711-3.4-2.539-7.975-2.539H63.9v9.827c0,4.748.778,5.3,8.073,5.631v.663H47.556v-.663c7.392-.331,8.17-.883,8.17-5.631V641.673c0-4.748-.778-5.079-7.781-5.521v-.607H71c7.393,0,11.867.5,15.563,1.988,3.5,1.38,5.933,3.754,5.933,7.011,0,4.748-5.544,7.619-12.645,9.33a109.645,109.645,0,0,0,8.754,8.17c3.4,2.872,5.933,4.8,8.073,6.294a15.466,15.466,0,0,0,6.516,2.816ZM67.69,654.206c4.766,0,7.976-.331,10.5-1.546,3.5-1.6,5.155-3.975,5.155-7.233,0-6.184-6.128-8.833-13.228-8.833a25.636,25.636,0,0,0-5.252.387c-.681.275-.973.828-.973,2.484v14.741Z" transform="translate(-47.556 -634.772)"/>
  <path id="パス_65" data-name="パス 65" d="M123.272,671.321v-.663c7.49-.331,8.268-.828,8.268-5.631V641.838c0-4.8-.778-5.3-8.268-5.63v-.663h24.8v.663c-7.49.33-8.267.828-8.267,5.63v23.188c0,4.8.777,5.3,8.267,5.631v.663Z" transform="translate(-67.053 -634.772)"/>
  <path id="パス_66" data-name="パス 66" d="M226.467,636.208c-5.35.276-7.1.883-7.49,3.753a70.5,70.5,0,0,0-.486,9.165v22.857h-1.654l-42.213-29.648h-.2v14.742a53.664,53.664,0,0,0,.584,9.551c.486,3.037,2.236,3.755,8.851,4.03v.663h-20.62v-.663c5.642-.276,7.684-.939,8.17-4.03a65.878,65.878,0,0,0,.584-9.551V644.489c0-4.141-.293-4.8-2.043-6.019-2.14-1.489-3.307-1.987-8.17-2.262v-.663h13.52l40.462,27.77h.292V649.126a66.85,66.85,0,0,0-.486-9.054c-.486-2.816-2.334-3.644-9.142-3.864v-.663h20.036Z" transform="translate(-76.97 -634.772)"/>
  <path id="パス_67" data-name="パス 67" d="M305.1,655.538c-5.35.443-5.836.939-5.836,4.2v4.915a12.514,12.514,0,0,0,.778,5.244c-5.739.718-13.131,1.933-20.717,1.933-20.815,0-35.016-7.233-35.016-18.275,0-12.643,17.41-19.047,36.474-19.047A137.172,137.172,0,0,1,298.3,635.94c.291,1.876.681,4.693,1.458,8.06l-1.458.221c-1.752-6.019-9.144-8.5-19.259-8.5-14.59,0-25,6.79-25,17,0,8.226,7.683,17.943,26.067,17.943a30.727,30.727,0,0,0,8.073-.883c1.848-.5,2.82-1.326,2.82-3.479v-6.017c0-3.92-.584-4.362-9.434-4.749v-.662H305.1Z" transform="translate(-98.221 -634.504)"/>
  <path id="パス_68" data-name="パス 68" d="M362.71,634.5c16.341,0,30.444,7.4,30.444,18.164,0,11.539-14.1,19.158-31.611,19.158-17.6,0-30.639-7.95-30.639-18.275,0-9.661,11.478-19.047,31.708-19.047Zm-2.043,1.215c-10.7,0-20.036,5.8-20.036,16.342,0,10.711,9.046,18.551,22.954,18.551,10.894,0,19.843-5.687,19.843-16.287,0-11.815-9.338-18.6-22.663-18.6Z" transform="translate(-120.518 -634.504)"/>
  <path id="パス_69" data-name="パス 69" d="M479.076,643.219a9.92,9.92,0,0,0-2.529-4.085c-1.849-1.877-4.182-2.429-12.645-2.429h-6.031c-2.82,0-3.112.22-3.112,1.766V652.6h10.212c8.851,0,9.532-.774,10.5-4.085h1.264V658.4h-1.264c-.973-3.478-1.654-4.361-10.5-4.361H454.76V664.75c0,5.189.778,5.576,8.753,5.907v.663H438.322v-.663c7.392-.331,8.17-.718,8.17-5.907v-22.8c0-5.079-.779-5.411-7.587-5.741v-.663H479.66a58.378,58.378,0,0,0,.778,7.508Z" transform="translate(-148.178 -634.772)"/>
  <path id="パス_70" data-name="パス 70" d="M545.779,663.2a61.722,61.722,0,0,1-3.209,8.116H497.925v-.663c8.462-.387,9.24-.828,9.24-5.631V642.059c0-5.244-.779-5.465-7.684-5.851v-.663h41.046c0,1.6.388,5.189.681,7.343l-1.264.165a9.032,9.032,0,0,0-3.4-4.583c-1.849-1.435-4.474-1.766-12.061-1.766h-6.031c-2.724,0-3.015.22-3.015,1.766v13.693h9.142c8.851,0,9.434-.662,10.6-4.14h1.167v9.937h-1.167c-1.168-3.754-1.849-4.361-10.408-4.361h-9.337v11.263c0,2.7.486,3.864,2.14,4.527,1.75.773,4.96.773,9.629.773,8.462,0,10.6-.552,12.645-2.1a19.043,19.043,0,0,0,4.669-5.079Z" transform="translate(-163.526 -634.772)"/>
  <path id="パス_71" data-name="パス 71" d="M599.212,643.006c-1.752-3.589-5.447-7.343-13.423-7.343-7.2,0-10.8,2.926-10.8,6.4,0,4.142,4.571,6.074,12.255,8.5,7.586,2.429,16.049,5.024,16.049,11.1,0,5.411-8.17,10.159-20.718,10.159a52.388,52.388,0,0,1-9.046-.773c-2.528-.442-4.084-.829-5.155-1.1-.681-.993-2.139-6.625-2.334-8.392l1.264-.276c1.46,3.644,6.517,9.331,16.633,9.331,7.3,0,11.574-2.87,11.574-6.957,0-4.03-5.154-6.073-12.158-8.447-5.933-1.988-15.66-4.8-15.66-10.932,0-5.245,7.3-9.772,19.356-9.772a61.211,61.211,0,0,1,11.769,1.215c.39,1.987.973,4.2,1.654,7.066Z" transform="translate(-181.067 -634.504)"/>
  <path id="パス_72" data-name="パス 72" d="M626.357,682.782c-2.529,0-4.377-1.049-4.377-2.65,0-1.436,1.848-2.651,4.474-2.651s4.572,1.215,4.572,2.651c0,1.6-1.945,2.65-4.572,2.65Z" transform="translate(-195.47 -645.571)"/>
  <path id="パス_73" data-name="パス 73" d="M695.142,664.668a56.114,56.114,0,0,0-3.21,6.9h-35.5v-.663c5.349-3.2,10.7-6.459,15.367-9.606,5.835-4.141,11.672-9,11.672-13.692s-4.085-7.674-11.672-7.674a17.61,17.61,0,0,0-12.839,4.914l-1.265-.552,5.35-4.583a24.281,24.281,0,0,1,12.742-3.2c8.268,0,15.855,3.312,15.855,9.109,0,4.748-3.794,7.84-13.034,13.471L664.7,667.65h19.453c5.252,0,6.711-.11,9.823-3.312Z" transform="translate(-204.341 -635.021)"/>
  <path id="パス_74" data-name="パス 74" d="M731.3,636.512c14.2,0,19.162,9.827,19.162,17.832,0,8.061-4.961,17.888-19.356,17.888-14.3,0-19.258-9.882-19.258-17.833,0-8.116,5.155-17.888,19.355-17.888Zm-.292,1.1c-8.462,0-10.6,8.888-10.6,16.728s2.237,16.784,10.8,16.784,10.7-8.944,10.7-16.728c0-7.9-2.14-16.784-10.8-16.784Z" transform="translate(-218.61 -635.021)"/>
  <path id="パス_75" data-name="パス 75" d="M804.92,664.668a56.012,56.012,0,0,0-3.211,6.9h-35.5v-.663c5.349-3.2,10.7-6.459,15.368-9.606,5.836-4.141,11.672-9,11.672-13.692s-4.085-7.674-11.672-7.674a17.612,17.612,0,0,0-12.839,4.914l-1.264-.552,5.35-4.583a24.286,24.286,0,0,1,12.742-3.2c8.268,0,15.855,3.312,15.855,9.109,0,4.748-3.793,7.84-13.034,13.471l-13.909,8.557h19.453c5.252,0,6.711-.11,9.823-3.312Z" transform="translate(-232.609 -635.021)"/>
  <path id="パス_76" data-name="パス 76" d="M861.119,664.668a56.006,56.006,0,0,0-3.21,6.9h-35.5v-.663c5.349-3.2,10.7-6.459,15.367-9.606,5.836-4.141,11.672-9,11.672-13.692s-4.085-7.674-11.672-7.674a17.613,17.613,0,0,0-12.839,4.914l-1.264-.552,5.35-4.583a24.286,24.286,0,0,1,12.743-3.2c8.267,0,15.854,3.312,15.854,9.109,0,4.748-3.793,7.84-13.034,13.471l-13.909,8.557h19.453c5.252,0,6.711-.11,9.824-3.312Z" transform="translate(-247.08 -635.021)"/>
</svg>
