<svg id="title02" xmlns="http://www.w3.org/2000/svg" width="624.447" height="37.929" viewBox="0 0 624.447 37.929">
  <path id="パス_77" data-name="パス 77" d="M930.734,635.545c6.809,0,12.353.663,15.855,2.208,3.988,1.657,6.322,4.251,6.322,7.784,0,7.122-9.531,10.49-18.675,11.152a21.518,21.518,0,0,1-3.793,0l-6.906-1.049v9.552c0,4.693.778,5.079,8.462,5.466v.663H907.293v-.663c7.2-.387,7.976-.828,7.976-5.576v-23.3c0-4.914-.681-5.245-7.392-5.576v-.663Zm-7.2,19.047a33.331,33.331,0,0,0,6.322.552c5.641,0,13.714-1.766,13.714-9.552,0-6.293-6.128-9-14.2-9a13.173,13.173,0,0,0-4.766.552c-.778.331-1.069,1.049-1.069,2.871Z" transform="translate(-907.293 -634.165)"/>
  <path id="パス_78" data-name="パス 78" d="M1033.353,636.208c-7.2.386-7.878.828-7.878,5.63v23.243c0,4.748.778,5.189,8.17,5.576v.663h-24.705v-.663c7.49-.387,8.268-.828,8.268-5.576V653.157H985.3v11.925c0,4.8.778,5.189,8.072,5.576v.663H969.352v-.663c6.906-.387,7.684-.773,7.684-5.576V641.838c0-4.857-.778-5.244-7.781-5.63v-.663h23.538v.663c-6.711.386-7.489.773-7.489,5.63v9.773h31.9v-9.773c0-4.8-.876-5.244-7.782-5.63v-.663h23.928Z" transform="translate(-923.248 -634.165)"/>
  <path id="パス_79" data-name="パス 79" d="M1085.162,634.5c16.341,0,30.444,7.4,30.444,18.164,0,11.539-14.1,19.158-31.61,19.158-17.605,0-30.639-7.95-30.639-18.275,0-9.661,11.478-19.047,31.709-19.047Zm-2.043,1.215c-10.7,0-20.036,5.8-20.036,16.342,0,10.711,9.046,18.551,22.954,18.551,10.894,0,19.843-5.687,19.843-16.287,0-11.815-9.337-18.6-22.663-18.6Z" transform="translate(-944.904 -633.897)"/>
  <path id="パス_80" data-name="パス 80" d="M1189.992,643.071a13.131,13.131,0,0,0-3.113-4.913c-1.458-1.436-3.6-1.933-11.478-1.933h-6.322v28.432c0,4.418.778,5.19,9.143,5.521v.663h-26.261v-.663c7.976-.331,8.851-1.1,8.851-5.521V636.225h-4.863c-9.337,0-11.477.552-12.839,1.988a13.811,13.811,0,0,0-3.113,4.913h-1.362c.486-3.091.972-6.68,1.167-9.44h.973c1.264,1.214,2.82,1.38,5.35,1.38h38.225c2.432,0,3.5-.331,4.961-1.38h1.07a57.215,57.215,0,0,0,.973,9.275Z" transform="translate(-966.864 -633.686)"/>
  <path id="パス_81" data-name="パス 81" d="M1240.918,634.5c16.341,0,30.444,7.4,30.444,18.164,0,11.539-14.1,19.158-31.61,19.158-17.605,0-30.639-7.95-30.639-18.275,0-9.661,11.477-19.047,31.708-19.047Zm-2.043,1.215c-10.7,0-20.036,5.8-20.036,16.342,0,10.711,9.046,18.551,22.954,18.551,10.894,0,19.843-5.687,19.843-16.287,0-11.815-9.338-18.6-22.663-18.6Z" transform="translate(-985.011 -633.897)"/>
  <path id="パス_82" data-name="パス 82" d="M1387.146,655.538c-5.35.443-5.836.939-5.836,4.2v4.915a12.513,12.513,0,0,0,.778,5.244c-5.738.718-13.131,1.933-20.717,1.933-20.815,0-35.016-7.233-35.016-18.275,0-12.643,17.412-19.047,36.475-19.047a137.167,137.167,0,0,1,17.508,1.436c.291,1.876.681,4.693,1.458,8.06l-1.458.221c-1.752-6.019-9.144-8.5-19.259-8.5-14.589,0-25,6.79-25,17,0,8.226,7.684,17.943,26.067,17.943a30.727,30.727,0,0,0,8.073-.883c1.848-.5,2.82-1.326,2.82-3.479v-6.017c0-3.92-.584-4.362-9.435-4.749v-.662h23.539Z" transform="translate(-1015.201 -633.897)"/>
  <path id="パス_83" data-name="パス 83" d="M1441.118,671.053v-.663c5.641-.442,6.906-.993,5.641-3.367-1.265-2.209-3.4-5.632-6.031-9.828h-19.55c-1.945,3.2-3.6,5.963-4.96,8.5-2.043,3.644-1.265,4.251,6.128,4.693v.663H1402.99v-.663c5.739-.387,7.1-1.048,10.408-5.852l20.328-29.647,1.751-.386q9.045,14.906,18.675,30.033c3.209,4.914,4.571,5.521,10.309,5.852v.663Zm-9.532-29.372h-.293c-3.209,4.638-6.224,9.552-9.142,13.968h17.7Z" transform="translate(-1034.935 -633.897)"/>
  <path id="パス_84" data-name="パス 84" d="M1531.232,663.094c-.681,1.491-2.431,6.4-3.4,8.227h-42.31v-.663c7.683-.331,8.56-.828,8.56-5.686V641.784c0-4.914-.584-5.245-7.782-5.576v-.663h23.733v.663c-6.905.33-7.683.662-7.683,5.576V664.7c0,3.092.388,4.2,2.043,4.8,1.75.553,4.863.663,9.142.663,6.128,0,9.337-.331,11.477-1.822a16.849,16.849,0,0,0,4.961-5.41Z" transform="translate(-1056.186 -634.165)"/>
  <path id="パス_85" data-name="パス 85" d="M1593.979,663.094c-.681,1.491-2.431,6.4-3.4,8.227h-42.31v-.663c7.683-.331,8.559-.828,8.559-5.686V641.784c0-4.914-.584-5.245-7.781-5.576v-.663h23.733v.663c-6.905.33-7.683.662-7.683,5.576V664.7c0,3.092.388,4.2,2.042,4.8,1.751.553,4.864.663,9.143.663,6.128,0,9.337-.331,11.477-1.822a16.849,16.849,0,0,0,4.961-5.41Z" transform="translate(-1072.343 -634.165)"/>
  <path id="パス_86" data-name="パス 86" d="M1657.949,663.2a61.766,61.766,0,0,1-3.209,8.116h-44.645v-.663c8.461-.387,9.24-.828,9.24-5.631V642.059c0-5.244-.779-5.465-7.685-5.851v-.663H1652.7c0,1.6.388,5.189.681,7.343l-1.265.165a9.036,9.036,0,0,0-3.4-4.583c-1.849-1.435-4.474-1.766-12.061-1.766h-6.031c-2.723,0-3.014.22-3.014,1.766v13.693h9.142c8.851,0,9.434-.662,10.6-4.14h1.167v9.937h-1.167c-1.168-3.754-1.849-4.361-10.408-4.361H1627.6v11.263c0,2.7.485,3.864,2.14,4.527,1.75.773,4.96.773,9.629.773,8.462,0,10.6-.552,12.645-2.1a19.043,19.043,0,0,0,4.669-5.079Z" transform="translate(-1088.265 -634.165)"/>
  <path id="パス_87" data-name="パス 87" d="M1728.633,636.208c-6.42.441-7,1.1-10.018,3.753a148.881,148.881,0,0,0-12.937,13.029c-1.459,1.6-1.654,2.319-1.654,3.755v8.06c0,5.025.778,5.521,8.949,5.852v.663H1687.1v-.663c7.879-.331,8.656-.828,8.656-5.852v-7.784c0-1.1-.291-1.712-1.653-3.258-2.432-2.761-6.128-6.735-11.867-12.588-4.084-4.252-4.765-4.748-10.31-4.968v-.663H1694.4v.663c-6.42.552-6.615,1.159-4.961,2.871,4.28,4.969,9.142,10.047,13.325,14.465,3.4-3.7,9.24-9.938,11.963-13.471,2.238-2.871,1.557-3.423-5.641-3.864v-.663h19.551Z" transform="translate(-1104.187 -634.165)"/>
</svg>
